<svg width="202" height="70" viewBox="0 0 202 70" fill="none" xmlns="http://www.w3.org/2000/svg">
<g clip-path="url(#clip0_382_274)">
<path d="M117.371 -0.107422L140.385 3.74222L124.344 22.1463L117.371 -0.107422Z" fill="url(#paint0_linear_382_274)"/>
<path d="M119.492 6.66381L140.383 3.74219L121.099 11.7936L119.492 6.66381Z" fill="black"/>
<path d="M119.497 6.66406L118.531 15.2074L121.747 13.8457L119.497 6.66406Z" fill="#231F20"/>
<path d="M121.104 11.7939L118.531 15.2076L121.747 13.8458L121.104 11.7939Z" fill="#666666"/>
<path d="M116.648 16.1746C106.573 21.1293 95.5839 18.7422 85.6937 13.5787C74.3684 7.66459 64.2591 1.78435 52.262 0.497693C40.8491 -0.726886 28.4064 0.540018 17.565 6.51337C8.7228 11.3891 1.18054 20.96 -0.101151 36.0726C-2.32129 62.2628 22.239 63.8034 33.4949 63.8626C50.8287 63.9529 67.876 59.475 84.8794 54.825C91.3079 53.0672 97.5575 49.3652 103.959 47.1248C129.039 38.3412 158.61 35.6155 181.039 58.6963C189.889 67.8016 199.874 83.0637 201.541 99.999C202.795 112.739 201.836 126.347 197.814 137.724" stroke="#817794" stroke-width="0.5" stroke-miterlimit="10" stroke-dasharray="5 5"/>
</g>
<defs>
<linearGradient id="paint0_linear_382_274" x1="132.528" y1="14.6801" x2="113.9" y2="16.5072" gradientUnits="userSpaceOnUse">
<stop stop-color="#B02E0C"/>
<stop offset="1" stop-color="#E64014"/>
</linearGradient>
<clipPath id="clip0_382_274">
<rect width="202" height="70" fill="white"/>
</clipPath>
</defs>
</svg>
