<svg width="80" height="80" viewBox="0 0 80 80" fill="none" xmlns="http://www.w3.org/2000/svg">
<circle cx="40" cy="40" r="40" fill="#B02E0C"/>
<g clip-path="url(#clip0_286_1828)">
<path d="M27.4112 24.7273C25.9309 24.7273 24.7266 25.9316 24.7266 27.412V38.3296H38.3288V24.7273H27.4112ZM33.6158 32.4233H32.4226V33.6165C32.4226 34.1107 32.0219 34.5114 31.5277 34.5114C31.0335 34.5114 30.6328 34.1107 30.6328 33.6165V32.4233H29.4396C28.9454 32.4233 28.5447 32.0226 28.5447 31.5284C28.5447 31.0342 28.9454 30.6335 29.4396 30.6335H30.6328V29.4404C30.6328 28.9461 31.0335 28.5455 31.5277 28.5455C32.0219 28.5455 32.4226 28.9461 32.4226 29.4404V30.6335H33.6158C34.11 30.6335 34.5107 31.0342 34.5107 31.5284C34.5107 32.0226 34.11 32.4233 33.6158 32.4233ZM53.2337 38.3296H53.7209V27.412C53.7209 25.9316 52.5165 24.7273 51.0362 24.7273H40.1186V38.0068C41.8896 36.6743 44.0903 35.8835 46.4723 35.8835C49.0407 35.8835 51.3982 36.803 53.2337 38.3296ZM43.9368 31.5284C43.9368 31.0342 44.3375 30.6335 44.8317 30.6335H49.0078C49.502 30.6335 49.9027 31.0342 49.9027 31.5284C49.9027 32.0226 49.502 32.4233 49.0078 32.4233H44.8317C44.3375 32.4233 43.9368 32.0226 43.9368 31.5284ZM38.0061 40.1193H24.7266V51.037C24.7266 52.5173 25.9309 53.7216 27.4112 53.7216H38.3288V53.2344C36.8022 51.399 35.8828 49.0414 35.8828 46.473C35.8828 44.091 36.6736 41.8904 38.0061 40.1193ZM33.6519 47.7792C34.0014 48.1287 34.0014 48.6953 33.6519 49.0448C33.4772 49.2195 33.2482 49.3068 33.0192 49.3068C32.7901 49.3068 32.5611 49.2195 32.3864 49.0447L31.5277 48.186L30.669 49.0448C30.4943 49.2195 30.2653 49.3068 30.0362 49.3068C29.8072 49.3068 29.5782 49.2195 29.4035 49.0447C29.054 48.6952 29.054 48.1286 29.4035 47.7792L30.2622 46.9205L29.4034 46.0617C29.0539 45.7123 29.0539 45.1457 29.4034 44.7962C29.7528 44.4467 30.3195 44.4467 30.669 44.7962L31.5277 45.6549L32.3864 44.7962C32.7359 44.4467 33.3025 44.4467 33.652 44.7962C34.0015 45.1457 34.0015 45.7123 33.652 46.0617L32.7932 46.9205L33.6519 47.7792Z" fill="white"/>
<path d="M46.4735 37.6733C41.6214 37.6733 37.6738 41.6209 37.6738 46.4731C37.6738 51.3252 41.6214 55.2728 46.4735 55.2728C51.3257 55.2728 55.2733 51.3252 55.2733 46.4731C55.2733 41.6209 51.3257 37.6733 46.4735 37.6733ZM48.5616 48.8594H44.3855C43.8913 48.8594 43.4906 48.4587 43.4906 47.9645C43.4906 47.4703 43.8913 47.0696 44.3855 47.0696H48.5616C49.0558 47.0696 49.4565 47.4703 49.4565 47.9645C49.4565 48.4587 49.0558 48.8594 48.5616 48.8594ZM48.5616 45.8765H44.3855C43.8913 45.8765 43.4906 45.4758 43.4906 44.9816C43.4906 44.4874 43.8913 44.0867 44.3855 44.0867H48.5616C49.0558 44.0867 49.4565 44.4874 49.4565 44.9816C49.4565 45.4758 49.0558 45.8765 48.5616 45.8765Z" fill="white"/>
</g>
<defs>
<clipPath id="clip0_286_1828">
<rect width="30.5455" height="30.5455" fill="white" transform="translate(24.7266 24.7273)"/>
</clipPath>
</defs>
</svg>
