<svg width="469" height="376" viewBox="0 0 469 376" fill="none" xmlns="http://www.w3.org/2000/svg">
<g clip-path="url(#clip0_286_2566)">
<rect y="1" width="469" height="376" rx="16" fill="white"/>
<g clip-path="url(#clip1_286_2566)">
<rect x="71.7031" y="36.3716" width="325.593" height="305.257" rx="16.6025" fill="#F3F3F3"/>
<path d="M98.9571 63.19C98.8538 64.3521 98.4406 65.269 97.7433 65.9146C97.046 66.5603 96.1162 66.8831 94.967 66.8831C93.6627 66.8831 92.6297 66.457 91.8678 65.5918C91.093 64.7266 90.7186 63.5515 90.7186 62.0794C90.7186 60.7107 91.093 59.5614 91.8678 58.6446C92.6426 57.7277 93.7015 57.2629 95.0703 57.2629C96.0387 57.2629 96.891 57.5341 97.627 58.0506C98.376 58.58 98.7892 59.3031 98.8667 60.2329H97.6529C97.5237 59.6389 97.2138 59.1611 96.749 58.8254C96.2841 58.4896 95.7159 58.3088 95.0315 58.3088C94.0114 58.3088 93.2366 58.6704 92.7201 59.3935C92.2036 60.1167 91.9453 61.0077 91.9453 62.0665C91.9453 63.2416 92.2165 64.1584 92.7717 64.8299C93.3141 65.5014 94.076 65.8371 95.0315 65.8371C95.8063 65.8371 96.439 65.6176 96.9039 65.1657C97.3688 64.7137 97.64 64.0551 97.7433 63.19H98.9571ZM106.197 65.7855V66.6507C105.965 66.7281 105.719 66.7798 105.448 66.7798C104.815 66.7798 104.493 66.4441 104.48 65.7984C103.847 66.4957 103.046 66.8573 102.065 66.8573C101.406 66.8573 100.89 66.6894 100.503 66.3537C100.115 66.0179 99.9343 65.5531 99.9343 64.972C99.9343 63.784 100.722 63.0867 102.297 62.893C102.401 62.8671 102.543 62.8542 102.749 62.8413C103.498 62.7509 103.95 62.6476 104.131 62.5443C104.325 62.4023 104.428 62.1698 104.428 61.8341C104.428 61.0981 103.924 60.7365 102.917 60.7365C102.401 60.7365 102 60.8398 101.742 61.0464C101.471 61.253 101.316 61.6017 101.264 62.0924H100.193C100.206 61.3692 100.464 60.814 100.954 60.4266C101.445 60.0263 102.117 59.8326 102.982 59.8326C103.912 59.8326 104.609 60.0392 105.074 60.4782C105.216 60.6074 105.319 60.7881 105.397 61.0206C105.461 61.2401 105.5 61.4209 105.513 61.5629C105.513 61.705 105.526 61.9245 105.526 62.2086C105.526 62.5314 105.513 63.0221 105.5 63.6807C105.474 64.3521 105.474 64.8428 105.474 65.1657C105.474 65.411 105.5 65.5789 105.564 65.6822C105.629 65.7855 105.745 65.8242 105.926 65.8242C105.991 65.8242 106.081 65.8113 106.197 65.7855ZM104.428 63.2158C104.351 63.2674 104.26 63.3191 104.183 63.3707C104.092 63.4095 103.976 63.4482 103.847 63.4741C103.718 63.4999 103.627 63.5128 103.576 63.5257C103.524 63.5386 103.421 63.5515 103.24 63.5774C103.059 63.6032 102.956 63.6161 102.956 63.6161C102.685 63.6419 102.504 63.6677 102.427 63.6807C102.349 63.6936 102.194 63.7323 101.962 63.7969C101.729 63.8485 101.574 63.926 101.484 64.0035C101.381 64.081 101.29 64.1843 101.2 64.3392C101.109 64.4942 101.071 64.675 101.071 64.8816C101.071 65.2173 101.187 65.4885 101.419 65.6951C101.652 65.8888 101.988 65.9921 102.401 65.9921C102.917 65.9921 103.395 65.8371 103.808 65.5272C104.221 65.2173 104.428 64.8428 104.428 64.4296V63.2158ZM108.394 57.4695V66.6636H107.283V57.4695H108.394ZM115.828 64.2359C115.724 65.0365 115.427 65.6822 114.911 66.1471C114.394 66.6248 113.736 66.8573 112.909 66.8573C111.902 66.8573 111.127 66.5474 110.572 65.9275C110.03 65.3077 109.746 64.4684 109.746 63.4224C109.746 62.3119 110.043 61.4338 110.611 60.7881C111.192 60.1425 111.967 59.8067 112.948 59.8067C113.774 59.8067 114.42 60.0134 114.911 60.4266C115.401 60.8398 115.698 61.4209 115.776 62.1827H114.64C114.446 61.2143 113.891 60.7365 112.974 60.7365C112.328 60.7365 111.825 60.9689 111.463 61.4338C111.088 61.8987 110.908 62.5443 110.908 63.3449C110.908 64.1455 111.076 64.7912 111.437 65.2561C111.786 65.7209 112.276 65.9534 112.896 65.9534C113.387 65.9534 113.8 65.7984 114.11 65.5143C114.42 65.2173 114.627 64.7912 114.717 64.2359H115.828ZM122.557 60.0004L122.544 66.6636H121.524V65.6176C120.955 66.4441 120.194 66.8444 119.225 66.8444C118.528 66.8444 117.973 66.6507 117.585 66.2633C117.198 65.8759 117.004 65.3206 117.004 64.5846V60.0004H118.102V64.2876C118.102 64.817 118.205 65.2173 118.412 65.4885C118.618 65.7597 118.98 65.8888 119.509 65.8888C120.801 65.8888 121.459 65.0882 121.459 63.487V60.0004H122.557ZM125.367 57.4695V66.6636H124.257V57.4695H125.367ZM132.969 65.7855V66.6507C132.737 66.7281 132.491 66.7798 132.22 66.7798C131.587 66.7798 131.265 66.4441 131.252 65.7984C130.619 66.4957 129.818 66.8573 128.837 66.8573C128.178 66.8573 127.662 66.6894 127.274 66.3537C126.887 66.0179 126.706 65.5531 126.706 64.972C126.706 63.784 127.494 63.0867 129.069 62.893C129.173 62.8671 129.315 62.8542 129.521 62.8413C130.27 62.7509 130.722 62.6476 130.903 62.5443C131.097 62.4023 131.2 62.1698 131.2 61.8341C131.2 61.0981 130.696 60.7365 129.689 60.7365C129.173 60.7365 128.772 60.8398 128.514 61.0464C128.243 61.253 128.088 61.6017 128.036 62.0924H126.964C126.977 61.3692 127.236 60.814 127.726 60.4266C128.217 60.0263 128.889 59.8326 129.754 59.8326C130.683 59.8326 131.381 60.0392 131.846 60.4782C131.988 60.6074 132.091 60.7881 132.168 61.0206C132.233 61.2401 132.272 61.4209 132.285 61.5629C132.285 61.705 132.298 61.9245 132.298 62.2086C132.298 62.5314 132.285 63.0221 132.272 63.6807C132.246 64.3521 132.246 64.8428 132.246 65.1657C132.246 65.411 132.272 65.5789 132.336 65.6822C132.401 65.7855 132.517 65.8242 132.698 65.8242C132.762 65.8242 132.853 65.8113 132.969 65.7855ZM131.2 63.2158C131.122 63.2674 131.032 63.3191 130.955 63.3707C130.864 63.4095 130.748 63.4482 130.619 63.4741C130.49 63.4999 130.399 63.5128 130.348 63.5257C130.296 63.5386 130.193 63.5515 130.012 63.5774C129.831 63.6032 129.728 63.6161 129.728 63.6161C129.457 63.6419 129.276 63.6677 129.198 63.6807C129.121 63.6936 128.966 63.7323 128.734 63.7969C128.501 63.8485 128.346 63.926 128.256 64.0035C128.152 64.081 128.062 64.1843 127.972 64.3392C127.881 64.4942 127.843 64.675 127.843 64.8816C127.843 65.2173 127.959 65.4885 128.191 65.6951C128.424 65.8888 128.759 65.9921 129.173 65.9921C129.689 65.9921 130.167 65.8371 130.58 65.5272C130.993 65.2173 131.2 64.8428 131.2 64.4296V63.2158ZM136.857 60.0004V60.9044H135.527V64.7912C135.527 65.0107 135.527 65.1527 135.527 65.2173C135.527 65.2948 135.553 65.3852 135.605 65.5014C135.643 65.6176 135.721 65.6951 135.824 65.7209C135.928 65.7597 136.07 65.7726 136.263 65.7726C136.418 65.7726 136.625 65.7597 136.857 65.7338V66.6765C136.547 66.7152 136.263 66.7281 136.018 66.7281C135.708 66.7281 135.45 66.7023 135.243 66.6248C135.037 66.5603 134.869 66.4828 134.765 66.3924C134.662 66.3149 134.585 66.16 134.533 65.9404C134.481 65.7209 134.443 65.5401 134.443 65.3852C134.43 65.2302 134.43 64.9849 134.43 64.6233V64.5717V64.5071V64.4425V60.9044H133.306V60.0004H134.43V58.0247H135.527V60.0004H136.857ZM139.239 57.4695V58.8124H138.128V57.4695H139.239ZM139.239 60.0004V66.6636H138.128V60.0004H139.239ZM143.858 59.8067C144.865 59.8067 145.64 60.1167 146.208 60.7365C146.763 61.3434 147.047 62.1957 147.047 63.2933C147.047 64.4296 146.763 65.3077 146.208 65.9275C145.64 66.5603 144.852 66.8702 143.845 66.8702C142.825 66.8702 142.024 66.5603 141.456 65.9404C140.875 65.3206 140.591 64.4684 140.591 63.3578C140.591 62.2731 140.875 61.408 141.469 60.7623C142.05 60.1296 142.85 59.8067 143.858 59.8067ZM143.832 60.7365C143.186 60.7365 142.67 60.9689 142.295 61.4338C141.908 61.9116 141.727 62.5443 141.727 63.332C141.727 64.1584 141.908 64.7912 142.282 65.2561C142.657 65.7209 143.186 65.9404 143.858 65.9404C144.503 65.9404 145.007 65.708 145.368 65.2431C145.73 64.7783 145.924 64.1455 145.924 63.3191C145.924 62.5314 145.73 61.8987 145.355 61.4338C144.981 60.9689 144.477 60.7365 143.832 60.7365ZM149.387 60.0004V61.0335C149.93 60.2329 150.691 59.8197 151.66 59.8197C152.435 59.8197 153.003 60.0263 153.351 60.4395C153.7 60.8527 153.881 61.4467 153.881 62.2344V66.6636H152.783V62.738C152.783 62.4152 152.77 62.1569 152.745 61.9761C152.719 61.7954 152.667 61.5887 152.59 61.3821C152.499 61.1755 152.357 61.0206 152.151 60.9173C151.944 60.8269 151.673 60.7752 151.35 60.7752C150.084 60.7752 149.452 61.5758 149.452 63.1771V66.6636H148.354V60.0004H149.387ZM165.696 57.4695V58.5284H162.61V66.6636H161.396V58.5284H158.31V57.4695H165.696ZM167.7 57.4695V58.8124H166.59V57.4695H167.7ZM167.7 60.0004V66.6636H166.59V60.0004H167.7ZM172.255 60.0004V60.9044H170.925V64.7912C170.925 65.0107 170.925 65.1527 170.925 65.2173C170.925 65.2948 170.95 65.3852 171.002 65.5014C171.041 65.6176 171.118 65.6951 171.222 65.7209C171.325 65.7597 171.467 65.7726 171.661 65.7726C171.816 65.7726 172.022 65.7597 172.255 65.7338V66.6765C171.945 66.7152 171.661 66.7281 171.415 66.7281C171.105 66.7281 170.847 66.7023 170.641 66.6248C170.434 66.5603 170.266 66.4828 170.163 66.3924C170.059 66.3149 169.982 66.16 169.93 65.9404C169.879 65.7209 169.84 65.5401 169.84 65.3852C169.827 65.2302 169.827 64.9849 169.827 64.6233V64.5717V64.5071V64.4425V60.9044H168.704V60.0004H169.827V58.0247H170.925V60.0004H172.255ZM174.636 57.4695V66.6636H173.526V57.4695H174.636ZM182.031 64.5587C181.695 66.1083 180.727 66.8831 179.126 66.8831C178.144 66.8831 177.37 66.5861 176.814 65.9663C176.259 65.3594 175.988 64.5071 175.988 63.4224C175.988 62.3506 176.272 61.4854 176.84 60.814C177.408 60.1425 178.157 59.8067 179.087 59.8067C180.107 59.8067 180.869 60.1554 181.36 60.8527C181.85 61.55 182.109 62.4152 182.109 63.4741V63.629H177.098L177.086 63.7065C177.086 64.4167 177.266 64.972 177.641 65.3723C178.002 65.7855 178.519 65.9792 179.165 65.9792C179.642 65.9792 180.017 65.8759 180.301 65.6434C180.585 65.4239 180.804 65.0624 180.959 64.5587H182.031ZM180.972 62.738C180.921 62.1053 180.727 61.6146 180.391 61.253C180.056 60.8914 179.604 60.7107 179.061 60.7107C178.519 60.7107 178.08 60.8914 177.731 61.253C177.37 61.6146 177.163 62.1182 177.098 62.738H180.972Z" fill="#060C12"/>
<path d="M189.513 57.3016C188.364 59.0707 187.796 61.0593 187.796 63.2674C187.796 65.3594 188.364 67.3221 189.513 69.13H188.674C187.977 68.0453 187.46 67.0639 187.137 66.1858C186.815 65.3077 186.66 64.3392 186.66 63.2674C186.66 61.0981 187.331 59.1094 188.674 57.3016H189.513ZM194.276 57.25C195.67 57.25 196.755 57.689 197.53 58.5671C198.304 59.4452 198.692 60.5815 198.692 61.9891C198.692 63.4095 198.304 64.5846 197.543 65.5014C196.768 66.4311 195.683 66.8831 194.289 66.8831C193.565 66.8831 192.933 66.754 192.364 66.4957C191.796 66.2374 191.331 65.8888 190.97 65.4239C190.608 64.972 190.337 64.4554 190.156 63.8614C189.976 63.2804 189.885 62.6476 189.885 61.9632C189.885 60.5299 190.273 59.3806 191.073 58.5284C191.874 57.6761 192.933 57.25 194.276 57.25ZM194.276 58.3088C193.243 58.3088 192.455 58.6704 191.913 59.3935C191.37 60.1167 191.086 60.9947 191.086 62.0536C191.086 63.2158 191.383 64.1326 191.964 64.817C192.545 65.5014 193.32 65.8371 194.289 65.8371C195.257 65.8371 196.032 65.5014 196.613 64.8041C197.181 64.1197 197.478 63.2029 197.478 62.0536C197.478 60.9173 197.181 60.0134 196.6 59.329C196.019 58.6575 195.244 58.3088 194.276 58.3088ZM201.052 60.0004V60.9431C201.53 60.1812 202.279 59.7938 203.299 59.7938C204.229 59.7938 204.965 60.1167 205.507 60.7365C206.049 61.3692 206.333 62.2215 206.333 63.2933C206.333 64.378 206.062 65.2302 205.52 65.8759C204.978 66.5215 204.254 66.8314 203.35 66.8314C202.395 66.8314 201.646 66.4699 201.117 65.7338V69.2333H200.019V60.0004H201.052ZM203.131 60.7107C202.485 60.7107 201.982 60.9431 201.62 61.408C201.259 61.8728 201.078 62.5056 201.078 63.3062C201.078 64.1197 201.259 64.7524 201.633 65.2173C202.008 65.6822 202.524 65.9146 203.17 65.9146C203.79 65.9146 204.293 65.6822 204.655 65.2173C205.016 64.7524 205.197 64.1197 205.197 63.3191C205.197 62.5056 205.003 61.8728 204.642 61.408C204.28 60.9431 203.777 60.7107 203.131 60.7107ZM210.527 60.0004V60.9044H209.197V64.7912C209.197 65.0107 209.197 65.1527 209.197 65.2173C209.197 65.2948 209.223 65.3852 209.275 65.5014C209.313 65.6176 209.391 65.6951 209.494 65.7209C209.597 65.7597 209.739 65.7726 209.933 65.7726C210.088 65.7726 210.295 65.7597 210.527 65.7338V66.6765C210.217 66.7152 209.933 66.7281 209.688 66.7281C209.378 66.7281 209.12 66.7023 208.913 66.6248C208.706 66.5603 208.539 66.4828 208.435 66.3924C208.332 66.3149 208.254 66.16 208.203 65.9404C208.151 65.7209 208.112 65.5401 208.112 65.3852C208.1 65.2302 208.1 64.9849 208.1 64.6233V64.5717V64.5071V64.4425V60.9044H206.976V60.0004H208.1V58.0247H209.197V60.0004H210.527ZM212.909 57.4695V58.8124H211.798V57.4695H212.909ZM212.909 60.0004V66.6636H211.798V60.0004H212.909ZM217.527 59.8067C218.535 59.8067 219.309 60.1167 219.878 60.7365C220.433 61.3434 220.717 62.1957 220.717 63.2933C220.717 64.4296 220.433 65.3077 219.878 65.9275C219.309 66.5603 218.522 66.8702 217.515 66.8702C216.494 66.8702 215.694 66.5603 215.126 65.9404C214.545 65.3206 214.26 64.4684 214.26 63.3578C214.26 62.2731 214.545 61.408 215.139 60.7623C215.72 60.1296 216.52 59.8067 217.527 59.8067ZM217.502 60.7365C216.856 60.7365 216.339 60.9689 215.965 61.4338C215.578 61.9116 215.397 62.5443 215.397 63.332C215.397 64.1584 215.578 64.7912 215.952 65.2561C216.327 65.7209 216.856 65.9404 217.527 65.9404C218.173 65.9404 218.677 65.708 219.038 65.2431C219.4 64.7783 219.594 64.1455 219.594 63.3191C219.594 62.5314 219.4 61.8987 219.025 61.4338C218.651 60.9689 218.147 60.7365 217.502 60.7365ZM223.057 60.0004V61.0335C223.599 60.2329 224.361 59.8197 225.33 59.8197C226.105 59.8197 226.673 60.0263 227.021 60.4395C227.37 60.8527 227.551 61.4467 227.551 62.2344V66.6636H226.453V62.738C226.453 62.4152 226.44 62.1569 226.414 61.9761C226.389 61.7954 226.337 61.5887 226.26 61.3821C226.169 61.1755 226.027 61.0206 225.82 60.9173C225.614 60.8269 225.343 60.7752 225.02 60.7752C223.754 60.7752 223.122 61.5758 223.122 63.1771V66.6636H222.024V60.0004H223.057ZM235.101 65.7855V66.6507C234.868 66.7281 234.623 66.7798 234.352 66.7798C233.719 66.7798 233.396 66.4441 233.383 65.7984C232.75 66.4957 231.95 66.8573 230.968 66.8573C230.31 66.8573 229.793 66.6894 229.406 66.3537C229.019 66.0179 228.838 65.5531 228.838 64.972C228.838 63.784 229.625 63.0867 231.201 62.893C231.304 62.8671 231.446 62.8542 231.653 62.8413C232.402 62.7509 232.854 62.6476 233.035 62.5443C233.228 62.4023 233.332 62.1698 233.332 61.8341C233.332 61.0981 232.828 60.7365 231.821 60.7365C231.304 60.7365 230.904 60.8398 230.646 61.0464C230.374 61.253 230.219 61.6017 230.168 62.0924H229.096C229.109 61.3692 229.367 60.814 229.858 60.4266C230.349 60.0263 231.02 59.8326 231.885 59.8326C232.815 59.8326 233.512 60.0392 233.977 60.4782C234.119 60.6074 234.223 60.7881 234.3 61.0206C234.365 61.2401 234.403 61.4209 234.416 61.5629C234.416 61.705 234.429 61.9245 234.429 62.2086C234.429 62.5314 234.416 63.0221 234.403 63.6807C234.377 64.3521 234.377 64.8428 234.377 65.1657C234.377 65.411 234.403 65.5789 234.468 65.6822C234.532 65.7855 234.649 65.8242 234.829 65.8242C234.894 65.8242 234.984 65.8113 235.101 65.7855ZM233.332 63.2158C233.254 63.2674 233.164 63.3191 233.086 63.3707C232.996 63.4095 232.88 63.4482 232.75 63.4741C232.621 63.4999 232.531 63.5128 232.479 63.5257C232.428 63.5386 232.324 63.5515 232.144 63.5774C231.963 63.6032 231.859 63.6161 231.859 63.6161C231.588 63.6419 231.407 63.6677 231.33 63.6807C231.253 63.6936 231.098 63.7323 230.865 63.7969C230.633 63.8485 230.478 63.926 230.387 64.0035C230.284 64.081 230.194 64.1843 230.103 64.3392C230.013 64.4942 229.974 64.675 229.974 64.8816C229.974 65.2173 230.09 65.4885 230.323 65.6951C230.555 65.8888 230.891 65.9921 231.304 65.9921C231.821 65.9921 232.298 65.8371 232.712 65.5272C233.125 65.2173 233.332 64.8428 233.332 64.4296V63.2158ZM237.297 57.4695V66.6636H236.187V57.4695H237.297ZM240.87 63.2674C240.87 64.3392 240.702 65.3077 240.379 66.1858C240.056 67.0639 239.553 68.0453 238.856 69.13H238.016C239.153 67.3221 239.734 65.3594 239.734 63.2674C239.734 61.0593 239.153 59.0707 238.016 57.3016H238.856C240.199 59.1094 240.87 61.0981 240.87 63.2674Z" fill="#4A4A4A"/>
<g opacity="0.3" filter="url(#filter0_f_286_2566)">
<ellipse cx="234.9" cy="125.005" rx="101.564" ry="1.84472" fill="#060C12"/>
</g>
<rect x="90.1504" y="75.1978" width="288.699" height="53.4969" rx="12.913" fill="white"/>
<rect x="90.6116" y="75.6589" width="287.776" height="52.5745" rx="12.4519" stroke="#060C12" stroke-opacity="0.1" stroke-width="0.92236"/>
<path opacity="0.5" d="M115.195 96.8999V98.1101H109.307V101.401H114.812V102.567H109.307V106.197H115.269V107.407H107.92V96.8999H115.195ZM117.901 99.7925V100.973C118.521 100.058 119.391 99.5859 120.498 99.5859C121.384 99.5859 122.033 99.822 122.431 100.294C122.83 100.766 123.037 101.445 123.037 102.346V107.407H121.782V102.921C121.782 102.552 121.767 102.257 121.738 102.05C121.708 101.844 121.649 101.608 121.561 101.372C121.457 101.135 121.295 100.958 121.059 100.84C120.823 100.737 120.513 100.678 120.144 100.678C118.698 100.678 117.975 101.593 117.975 103.423V107.407H116.72V99.7925H117.901ZM128.182 99.7925V100.826H126.662V105.268C126.662 105.518 126.662 105.681 126.662 105.755C126.662 105.843 126.692 105.946 126.751 106.079C126.795 106.212 126.883 106.301 127.001 106.33C127.12 106.374 127.282 106.389 127.503 106.389C127.68 106.389 127.916 106.374 128.182 106.345V107.422C127.828 107.467 127.503 107.481 127.223 107.481C126.869 107.481 126.573 107.452 126.337 107.363C126.101 107.289 125.909 107.201 125.791 107.098C125.673 107.009 125.585 106.832 125.526 106.581C125.467 106.33 125.422 106.124 125.422 105.946C125.408 105.769 125.408 105.489 125.408 105.076V105.017V104.943V104.869V100.826H124.124V99.7925H125.408V97.5345H126.662V99.7925H128.182ZM136.084 105.002C135.7 106.773 134.593 107.658 132.763 107.658C131.642 107.658 130.756 107.319 130.122 106.611C129.487 105.917 129.177 104.943 129.177 103.703C129.177 102.478 129.502 101.49 130.151 100.722C130.801 99.9548 131.656 99.5711 132.719 99.5711C133.885 99.5711 134.756 99.9696 135.316 100.766C135.877 101.563 136.172 102.552 136.172 103.762V103.939H130.446L130.432 104.028C130.432 104.84 130.638 105.474 131.066 105.932C131.479 106.404 132.07 106.625 132.808 106.625C133.354 106.625 133.782 106.507 134.106 106.242C134.431 105.991 134.682 105.578 134.859 105.002H136.084ZM134.874 102.921C134.815 102.198 134.593 101.637 134.21 101.224C133.826 100.811 133.309 100.604 132.69 100.604C132.07 100.604 131.568 100.811 131.169 101.224C130.756 101.637 130.52 102.213 130.446 102.921H134.874ZM141.472 99.6154L141.457 100.929C141.369 100.914 141.265 100.914 141.133 100.914C140.734 100.914 140.38 100.973 140.085 101.091C139.79 101.209 139.568 101.372 139.391 101.563C139.214 101.77 139.081 102.006 138.963 102.301C138.86 102.596 138.786 102.892 138.757 103.187C138.727 103.482 138.712 103.821 138.712 104.19V107.407H137.458V99.7925H138.653V101.431C139.155 100.22 140.085 99.6154 141.472 99.6154ZM145.786 99.7925H147.188L149.343 106.183L151.438 99.7925H152.752L149.963 107.407H148.62L145.786 99.7925ZM160.647 106.404V107.393C160.382 107.481 160.101 107.54 159.791 107.54C159.068 107.54 158.699 107.157 158.684 106.419C157.961 107.216 157.046 107.629 155.925 107.629C155.172 107.629 154.582 107.437 154.139 107.053C153.696 106.67 153.49 106.138 153.49 105.474C153.49 104.116 154.39 103.32 156.19 103.098C156.308 103.069 156.471 103.054 156.707 103.039C157.563 102.936 158.079 102.818 158.286 102.7C158.507 102.537 158.625 102.272 158.625 101.888C158.625 101.047 158.05 100.634 156.899 100.634C156.308 100.634 155.851 100.752 155.556 100.988C155.246 101.224 155.069 101.622 155.01 102.183H153.785C153.8 101.357 154.095 100.722 154.656 100.279C155.216 99.822 155.984 99.6006 156.973 99.6006C158.035 99.6006 158.832 99.8367 159.363 100.339C159.526 100.486 159.644 100.693 159.732 100.958C159.806 101.209 159.85 101.416 159.865 101.578C159.865 101.74 159.88 101.991 159.88 102.316C159.88 102.685 159.865 103.246 159.85 103.998C159.821 104.766 159.821 105.327 159.821 105.696C159.821 105.976 159.85 106.168 159.924 106.286C159.998 106.404 160.131 106.448 160.337 106.448C160.411 106.448 160.514 106.433 160.647 106.404ZM158.625 103.467C158.537 103.526 158.434 103.585 158.345 103.644C158.242 103.689 158.109 103.733 157.961 103.762C157.814 103.792 157.71 103.807 157.651 103.821C157.592 103.836 157.474 103.851 157.268 103.88C157.061 103.91 156.943 103.925 156.943 103.925C156.633 103.954 156.426 103.984 156.338 103.998C156.249 104.013 156.072 104.057 155.807 104.131C155.541 104.19 155.364 104.279 155.261 104.367C155.143 104.456 155.039 104.574 154.936 104.751C154.833 104.928 154.788 105.135 154.788 105.371C154.788 105.755 154.921 106.065 155.187 106.301C155.452 106.522 155.836 106.64 156.308 106.64C156.899 106.64 157.445 106.463 157.917 106.109C158.389 105.755 158.625 105.327 158.625 104.854V103.467ZM163.158 96.8999V107.407H161.888V96.8999H163.158ZM171.417 99.7925L171.402 107.407H170.237V106.212C169.587 107.157 168.717 107.614 167.61 107.614C166.813 107.614 166.178 107.393 165.736 106.95C165.293 106.507 165.071 105.873 165.071 105.031V99.7925H166.326V104.692C166.326 105.297 166.444 105.755 166.68 106.065C166.916 106.374 167.329 106.522 167.934 106.522C169.41 106.522 170.163 105.607 170.163 103.777V99.7925H171.417ZM179.809 105.002C179.426 106.773 178.319 107.658 176.489 107.658C175.367 107.658 174.482 107.319 173.847 106.611C173.213 105.917 172.903 104.943 172.903 103.703C172.903 102.478 173.227 101.49 173.877 100.722C174.526 99.9548 175.382 99.5711 176.445 99.5711C177.611 99.5711 178.481 99.9696 179.042 100.766C179.603 101.563 179.898 102.552 179.898 103.762V103.939H174.172L174.157 104.028C174.157 104.84 174.364 105.474 174.792 105.932C175.205 106.404 175.795 106.625 176.533 106.625C177.079 106.625 177.507 106.507 177.832 106.242C178.157 105.991 178.407 105.578 178.585 105.002H179.809ZM178.599 102.921C178.54 102.198 178.319 101.637 177.935 101.224C177.552 100.811 177.035 100.604 176.415 100.604C175.795 100.604 175.294 100.811 174.895 101.224C174.482 101.637 174.246 102.213 174.172 102.921H178.599Z" fill="#060C12"/>
<path d="M98.9571 159.511C98.8538 160.673 98.4406 161.59 97.7433 162.235C97.046 162.881 96.1162 163.204 94.967 163.204C93.6627 163.204 92.6297 162.778 91.8678 161.913C91.093 161.047 90.7186 159.872 90.7186 158.4C90.7186 157.031 91.093 155.882 91.8678 154.965C92.6426 154.049 93.7015 153.584 95.0703 153.584C96.0387 153.584 96.891 153.855 97.627 154.371C98.376 154.901 98.7892 155.624 98.8667 156.554H97.6529C97.5237 155.96 97.2138 155.482 96.749 155.146C96.2841 154.81 95.7159 154.63 95.0315 154.63C94.0114 154.63 93.2366 154.991 92.7201 155.714C92.2036 156.437 91.9453 157.328 91.9453 158.387C91.9453 159.562 92.2165 160.479 92.7717 161.151C93.3141 161.822 94.076 162.158 95.0315 162.158C95.8063 162.158 96.439 161.938 96.9039 161.486C97.3688 161.035 97.64 160.376 97.7433 159.511H98.9571ZM103.214 156.128C104.221 156.128 104.996 156.437 105.564 157.057C106.12 157.664 106.404 158.516 106.404 159.614C106.404 160.75 106.12 161.629 105.564 162.248C104.996 162.881 104.209 163.191 103.201 163.191C102.181 163.191 101.381 162.881 100.812 162.261C100.231 161.641 99.9473 160.789 99.9473 159.679C99.9473 158.594 100.231 157.729 100.825 157.083C101.406 156.45 102.207 156.128 103.214 156.128ZM103.188 157.057C102.543 157.057 102.026 157.29 101.652 157.755C101.264 158.232 101.084 158.865 101.084 159.653C101.084 160.479 101.264 161.112 101.639 161.577C102.013 162.042 102.543 162.261 103.214 162.261C103.86 162.261 104.364 162.029 104.725 161.564C105.087 161.099 105.28 160.466 105.28 159.64C105.28 158.852 105.087 158.219 104.712 157.755C104.338 157.29 103.834 157.057 103.188 157.057ZM108.744 156.321V157.354C109.286 156.554 110.048 156.14 111.017 156.14C111.791 156.14 112.36 156.347 112.708 156.76C113.057 157.174 113.238 157.768 113.238 158.555V162.984H112.14V159.059C112.14 158.736 112.127 158.478 112.101 158.297C112.075 158.116 112.024 157.91 111.946 157.703C111.856 157.496 111.714 157.341 111.507 157.238C111.301 157.148 111.029 157.096 110.707 157.096C109.441 157.096 108.808 157.897 108.808 159.498V162.984H107.711V156.321H108.744ZM119.832 158.258H118.734C118.657 157.458 118.114 157.044 117.107 157.044C116.681 157.044 116.345 157.135 116.113 157.29C115.868 157.458 115.751 157.677 115.751 157.948C115.751 158.026 115.751 158.103 115.777 158.181C115.79 158.258 115.816 158.323 115.868 158.374C115.919 158.426 115.958 158.478 115.997 158.516C116.035 158.568 116.1 158.607 116.19 158.646C116.281 158.684 116.345 158.71 116.397 158.736C116.449 158.762 116.526 158.801 116.655 158.826C116.784 158.852 116.875 158.878 116.926 158.891C116.978 158.904 117.068 158.93 117.223 158.956C117.378 158.994 117.469 159.02 117.52 159.02C117.83 159.098 118.076 159.149 118.231 159.188C118.386 159.24 118.605 159.317 118.889 159.433C119.173 159.55 119.38 159.666 119.535 159.795C119.677 159.924 119.806 160.092 119.922 160.311C120.038 160.531 120.103 160.776 120.103 161.047C120.103 161.693 119.845 162.223 119.341 162.61C118.838 162.997 118.166 163.191 117.34 163.191C116.436 163.191 115.738 162.997 115.248 162.597C114.757 162.21 114.499 161.629 114.473 160.88H115.558C115.609 161.822 116.216 162.287 117.365 162.287C117.856 162.287 118.244 162.197 118.541 161.99C118.838 161.783 118.992 161.512 118.992 161.177C118.992 160.957 118.915 160.776 118.76 160.621C118.605 160.479 118.424 160.376 118.244 160.311C118.05 160.247 117.779 160.169 117.43 160.079C117.378 160.079 117.34 160.066 117.314 160.053C117.236 160.04 117.068 160.001 116.81 159.95C116.552 159.898 116.371 159.847 116.268 159.808C116.152 159.782 115.984 159.73 115.777 159.653C115.571 159.575 115.416 159.498 115.312 159.42C115.209 159.343 115.093 159.24 114.964 159.11C114.834 158.981 114.757 158.839 114.705 158.671C114.654 158.504 114.628 158.31 114.628 158.09C114.628 157.496 114.847 157.019 115.312 156.657C115.777 156.308 116.397 156.128 117.172 156.128C117.947 156.128 118.592 156.321 119.083 156.683C119.574 157.057 119.832 157.587 119.832 158.258ZM124.196 156.321V157.225H122.866V161.112C122.866 161.332 122.866 161.474 122.866 161.538C122.866 161.616 122.892 161.706 122.944 161.822C122.983 161.938 123.06 162.016 123.163 162.042C123.267 162.08 123.409 162.093 123.602 162.093C123.757 162.093 123.964 162.08 124.196 162.055V162.997C123.887 163.036 123.602 163.049 123.357 163.049C123.047 163.049 122.789 163.023 122.582 162.946C122.376 162.881 122.208 162.804 122.105 162.713C122.001 162.636 121.924 162.481 121.872 162.261C121.82 162.042 121.782 161.861 121.782 161.706C121.769 161.551 121.769 161.306 121.769 160.944V160.892V160.828V160.763V157.225H120.645V156.321H121.769V154.346H122.866V156.321H124.196ZM128.889 156.166L128.877 157.316C128.799 157.303 128.709 157.303 128.592 157.303C128.244 157.303 127.934 157.354 127.676 157.458C127.417 157.561 127.224 157.703 127.069 157.871C126.914 158.052 126.798 158.258 126.694 158.516C126.604 158.775 126.539 159.033 126.513 159.291C126.488 159.55 126.475 159.847 126.475 160.169V162.984H125.377V156.321H126.423V157.755C126.862 156.696 127.676 156.166 128.889 156.166ZM135.243 156.321L135.23 162.984H134.21V161.938C133.642 162.765 132.88 163.165 131.911 163.165C131.214 163.165 130.659 162.971 130.271 162.584C129.884 162.197 129.69 161.641 129.69 160.905V156.321H130.788V160.608C130.788 161.138 130.891 161.538 131.098 161.809C131.304 162.08 131.666 162.21 132.195 162.21C133.487 162.21 134.145 161.409 134.145 159.808V156.321H135.243ZM142.625 160.557C142.521 161.357 142.224 162.003 141.708 162.468C141.191 162.946 140.533 163.178 139.706 163.178C138.699 163.178 137.924 162.868 137.369 162.248C136.827 161.629 136.543 160.789 136.543 159.743C136.543 158.633 136.84 157.755 137.408 157.109C137.989 156.463 138.764 156.128 139.745 156.128C140.571 156.128 141.217 156.334 141.708 156.747C142.199 157.161 142.496 157.742 142.573 158.504H141.437C141.243 157.535 140.688 157.057 139.771 157.057C139.125 157.057 138.622 157.29 138.26 157.755C137.886 158.219 137.705 158.865 137.705 159.666C137.705 160.466 137.873 161.112 138.234 161.577C138.583 162.042 139.074 162.274 139.693 162.274C140.184 162.274 140.597 162.119 140.907 161.835C141.217 161.538 141.424 161.112 141.514 160.557H142.625ZM146.681 156.321V157.225H145.351V161.112C145.351 161.332 145.351 161.474 145.351 161.538C145.351 161.616 145.377 161.706 145.428 161.822C145.467 161.938 145.544 162.016 145.648 162.042C145.751 162.08 145.893 162.093 146.087 162.093C146.242 162.093 146.448 162.08 146.681 162.055V162.997C146.371 163.036 146.087 163.049 145.841 163.049C145.532 163.049 145.273 163.023 145.067 162.946C144.86 162.881 144.692 162.804 144.589 162.713C144.486 162.636 144.408 162.481 144.356 162.261C144.305 162.042 144.266 161.861 144.266 161.706C144.253 161.551 144.253 161.306 144.253 160.944V160.892V160.828V160.763V157.225H143.13V156.321H144.253V154.346H145.351V156.321H146.681ZM149.062 153.79V155.133H147.952V153.79H149.062ZM149.062 156.321V162.984H147.952V156.321H149.062ZM153.681 156.128C154.688 156.128 155.463 156.437 156.031 157.057C156.586 157.664 156.871 158.516 156.871 159.614C156.871 160.75 156.586 161.629 156.031 162.248C155.463 162.881 154.675 163.191 153.668 163.191C152.648 163.191 151.847 162.881 151.279 162.261C150.698 161.641 150.414 160.789 150.414 159.679C150.414 158.594 150.698 157.729 151.292 157.083C151.873 156.45 152.674 156.128 153.681 156.128ZM153.655 157.057C153.01 157.057 152.493 157.29 152.119 157.755C151.731 158.232 151.55 158.865 151.55 159.653C151.55 160.479 151.731 161.112 152.106 161.577C152.48 162.042 153.01 162.261 153.681 162.261C154.327 162.261 154.83 162.029 155.192 161.564C155.553 161.099 155.747 160.466 155.747 159.64C155.747 158.852 155.553 158.219 155.179 157.755C154.804 157.29 154.301 157.057 153.655 157.057ZM159.211 156.321V157.354C159.753 156.554 160.515 156.14 161.483 156.14C162.258 156.14 162.826 156.347 163.175 156.76C163.524 157.174 163.704 157.768 163.704 158.555V162.984H162.607V159.059C162.607 158.736 162.594 158.478 162.568 158.297C162.542 158.116 162.491 157.91 162.413 157.703C162.323 157.496 162.181 157.341 161.974 157.238C161.767 157.148 161.496 157.096 161.173 157.096C159.908 157.096 159.275 157.897 159.275 159.498V162.984H158.178V156.321H159.211ZM173.002 153.79L176.591 162.984H175.236L174.215 160.169H170.354L169.308 162.984H168.017L171.633 153.79H173.002ZM173.854 159.201L172.291 154.952L170.703 159.201H173.854ZM180.794 156.166L180.781 157.316C180.703 157.303 180.613 157.303 180.497 157.303C180.148 157.303 179.838 157.354 179.58 157.458C179.322 157.561 179.128 157.703 178.973 157.871C178.818 158.052 178.702 158.258 178.599 158.516C178.508 158.775 178.444 159.033 178.418 159.291C178.392 159.55 178.379 159.847 178.379 160.169V162.984H177.281V156.321H178.327V157.755C178.766 156.696 179.58 156.166 180.794 156.166ZM187.088 160.88C186.752 162.429 185.784 163.204 184.183 163.204C183.201 163.204 182.426 162.907 181.871 162.287C181.316 161.68 181.045 160.828 181.045 159.743C181.045 158.671 181.329 157.806 181.897 157.135C182.465 156.463 183.214 156.128 184.144 156.128C185.164 156.128 185.926 156.476 186.417 157.174C186.907 157.871 187.165 158.736 187.165 159.795V159.95H182.155L182.142 160.027C182.142 160.738 182.323 161.293 182.698 161.693C183.059 162.106 183.576 162.3 184.221 162.3C184.699 162.3 185.074 162.197 185.358 161.964C185.642 161.745 185.861 161.383 186.016 160.88H187.088ZM186.029 159.059C185.977 158.426 185.784 157.935 185.448 157.574C185.112 157.212 184.66 157.031 184.118 157.031C183.576 157.031 183.137 157.212 182.788 157.574C182.426 157.935 182.22 158.439 182.155 159.059H186.029ZM194.23 162.106V162.971C193.998 163.049 193.753 163.101 193.481 163.101C192.849 163.101 192.526 162.765 192.513 162.119C191.88 162.817 191.08 163.178 190.098 163.178C189.44 163.178 188.923 163.01 188.536 162.674C188.148 162.339 187.968 161.874 187.968 161.293C187.968 160.105 188.755 159.407 190.331 159.214C190.434 159.188 190.576 159.175 190.783 159.162C191.532 159.072 191.983 158.968 192.164 158.865C192.358 158.723 192.461 158.491 192.461 158.155C192.461 157.419 191.958 157.057 190.95 157.057C190.434 157.057 190.034 157.161 189.775 157.367C189.504 157.574 189.349 157.922 189.298 158.413H188.226C188.239 157.69 188.497 157.135 188.988 156.747C189.478 156.347 190.15 156.153 191.015 156.153C191.945 156.153 192.642 156.36 193.107 156.799C193.249 156.928 193.352 157.109 193.43 157.341C193.494 157.561 193.533 157.742 193.546 157.884C193.546 158.026 193.559 158.245 193.559 158.529C193.559 158.852 193.546 159.343 193.533 160.001C193.507 160.673 193.507 161.164 193.507 161.486C193.507 161.732 193.533 161.9 193.598 162.003C193.662 162.106 193.778 162.145 193.959 162.145C194.024 162.145 194.114 162.132 194.23 162.106ZM192.461 159.537C192.384 159.588 192.293 159.64 192.216 159.692C192.126 159.73 192.009 159.769 191.88 159.795C191.751 159.821 191.661 159.834 191.609 159.847C191.557 159.859 191.454 159.872 191.273 159.898C191.092 159.924 190.989 159.937 190.989 159.937C190.718 159.963 190.537 159.989 190.46 160.001C190.382 160.014 190.227 160.053 189.995 160.118C189.762 160.169 189.607 160.247 189.517 160.324C189.414 160.402 189.323 160.505 189.233 160.66C189.143 160.815 189.104 160.996 189.104 161.202C189.104 161.538 189.22 161.809 189.453 162.016C189.685 162.21 190.021 162.313 190.434 162.313C190.95 162.313 191.428 162.158 191.841 161.848C192.255 161.538 192.461 161.164 192.461 160.75V159.537Z" fill="#060C12"/>
<g opacity="0.3" filter="url(#filter1_f_286_2566)">
<ellipse cx="234.9" cy="221.326" rx="101.564" ry="1.84472" fill="#060C12"/>
</g>
<rect x="90.1504" y="171.519" width="288.699" height="53.4969" rx="12.913" fill="white"/>
<rect x="90.6116" y="171.98" width="287.776" height="52.5745" rx="12.4519" stroke="#060C12" stroke-opacity="0.1" stroke-width="0.92236"/>
<path opacity="0.5" d="M115.195 193.22V194.431H109.307V197.722H114.812V198.887H109.307V202.518H115.269V203.728H107.92V193.22H115.195ZM117.901 196.113V197.294C118.521 196.379 119.391 195.906 120.498 195.906C121.384 195.906 122.033 196.143 122.431 196.615C122.83 197.087 123.037 197.766 123.037 198.666V203.728H121.782V199.242C121.782 198.873 121.767 198.578 121.738 198.371C121.708 198.164 121.649 197.928 121.561 197.692C121.457 197.456 121.295 197.279 121.059 197.161C120.823 197.058 120.513 196.998 120.144 196.998C118.698 196.998 117.975 197.913 117.975 199.743V203.728H116.72V196.113H117.901ZM128.182 196.113V197.146H126.662V201.588C126.662 201.839 126.662 202.001 126.662 202.075C126.662 202.164 126.692 202.267 126.751 202.4C126.795 202.533 126.883 202.621 127.001 202.651C127.12 202.695 127.282 202.71 127.503 202.71C127.68 202.71 127.916 202.695 128.182 202.665V203.743C127.828 203.787 127.503 203.802 127.223 203.802C126.869 203.802 126.573 203.772 126.337 203.684C126.101 203.61 125.909 203.521 125.791 203.418C125.673 203.33 125.585 203.152 125.526 202.902C125.467 202.651 125.422 202.444 125.422 202.267C125.408 202.09 125.408 201.81 125.408 201.396V201.337V201.263V201.19V197.146H124.124V196.113H125.408V193.855H126.662V196.113H128.182ZM136.084 201.323C135.7 203.093 134.593 203.979 132.763 203.979C131.642 203.979 130.756 203.639 130.122 202.931C129.487 202.237 129.177 201.263 129.177 200.024C129.177 198.799 129.502 197.81 130.151 197.043C130.801 196.275 131.656 195.892 132.719 195.892C133.885 195.892 134.756 196.29 135.316 197.087C135.877 197.884 136.172 198.873 136.172 200.083V200.26H130.446L130.432 200.348C130.432 201.16 130.638 201.795 131.066 202.252C131.479 202.724 132.07 202.946 132.808 202.946C133.354 202.946 133.782 202.828 134.106 202.562C134.431 202.311 134.682 201.898 134.859 201.323H136.084ZM134.874 199.242C134.815 198.519 134.593 197.958 134.21 197.545C133.826 197.131 133.309 196.925 132.69 196.925C132.07 196.925 131.568 197.131 131.169 197.545C130.756 197.958 130.52 198.533 130.446 199.242H134.874ZM141.472 195.936L141.457 197.249C141.369 197.235 141.265 197.235 141.133 197.235C140.734 197.235 140.38 197.294 140.085 197.412C139.79 197.53 139.568 197.692 139.391 197.884C139.214 198.091 139.081 198.327 138.963 198.622C138.86 198.917 138.786 199.212 138.757 199.507C138.727 199.802 138.712 200.142 138.712 200.511V203.728H137.458V196.113H138.653V197.751C139.155 196.541 140.085 195.936 141.472 195.936ZM145.786 196.113H147.188L149.343 202.503L151.438 196.113H152.752L149.963 203.728H148.62L145.786 196.113ZM160.647 202.724V203.713C160.382 203.802 160.101 203.861 159.791 203.861C159.068 203.861 158.699 203.477 158.684 202.739C157.961 203.536 157.046 203.949 155.925 203.949C155.172 203.949 154.582 203.758 154.139 203.374C153.696 202.99 153.49 202.459 153.49 201.795C153.49 200.437 154.39 199.64 156.19 199.419C156.308 199.389 156.471 199.374 156.707 199.36C157.563 199.256 158.079 199.138 158.286 199.02C158.507 198.858 158.625 198.592 158.625 198.209C158.625 197.367 158.05 196.954 156.899 196.954C156.308 196.954 155.851 197.072 155.556 197.308C155.246 197.545 155.069 197.943 155.01 198.504H153.785C153.8 197.677 154.095 197.043 154.656 196.6C155.216 196.143 155.984 195.921 156.973 195.921C158.035 195.921 158.832 196.157 159.363 196.659C159.526 196.807 159.644 197.013 159.732 197.279C159.806 197.53 159.85 197.736 159.865 197.899C159.865 198.061 159.88 198.312 159.88 198.637C159.88 199.006 159.865 199.566 159.85 200.319C159.821 201.086 159.821 201.647 159.821 202.016C159.821 202.297 159.85 202.488 159.924 202.606C159.998 202.724 160.131 202.769 160.337 202.769C160.411 202.769 160.514 202.754 160.647 202.724ZM158.625 199.788C158.537 199.847 158.434 199.906 158.345 199.965C158.242 200.009 158.109 200.053 157.961 200.083C157.814 200.112 157.71 200.127 157.651 200.142C157.592 200.157 157.474 200.171 157.268 200.201C157.061 200.23 156.943 200.245 156.943 200.245C156.633 200.275 156.426 200.304 156.338 200.319C156.249 200.334 156.072 200.378 155.807 200.452C155.541 200.511 155.364 200.599 155.261 200.688C155.143 200.776 155.039 200.895 154.936 201.072C154.833 201.249 154.788 201.455 154.788 201.691C154.788 202.075 154.921 202.385 155.187 202.621C155.452 202.843 155.836 202.961 156.308 202.961C156.899 202.961 157.445 202.784 157.917 202.429C158.389 202.075 158.625 201.647 158.625 201.175V199.788ZM163.158 193.22V203.728H161.888V193.22H163.158ZM171.417 196.113L171.402 203.728H170.237V202.533C169.587 203.477 168.717 203.935 167.61 203.935C166.813 203.935 166.178 203.713 165.736 203.271C165.293 202.828 165.071 202.193 165.071 201.352V196.113H166.326V201.013C166.326 201.618 166.444 202.075 166.68 202.385C166.916 202.695 167.329 202.843 167.934 202.843C169.41 202.843 170.163 201.928 170.163 200.098V196.113H171.417ZM179.809 201.323C179.426 203.093 178.319 203.979 176.489 203.979C175.367 203.979 174.482 203.639 173.847 202.931C173.213 202.237 172.903 201.263 172.903 200.024C172.903 198.799 173.227 197.81 173.877 197.043C174.526 196.275 175.382 195.892 176.445 195.892C177.611 195.892 178.481 196.29 179.042 197.087C179.603 197.884 179.898 198.873 179.898 200.083V200.26H174.172L174.157 200.348C174.157 201.16 174.364 201.795 174.792 202.252C175.205 202.724 175.795 202.946 176.533 202.946C177.079 202.946 177.507 202.828 177.832 202.562C178.157 202.311 178.407 201.898 178.585 201.323H179.809ZM178.599 199.242C178.54 198.519 178.319 197.958 177.935 197.545C177.552 197.131 177.035 196.925 176.415 196.925C175.795 196.925 175.294 197.131 174.895 197.545C174.482 197.958 174.246 198.533 174.172 199.242H178.599Z" fill="#060C12"/>
<path d="M338.02 198.502H336.923C336.845 197.701 336.303 197.288 335.296 197.288C334.869 197.288 334.534 197.378 334.301 197.533C334.056 197.701 333.94 197.921 333.94 198.192C333.94 198.269 333.94 198.347 333.965 198.424C333.978 198.502 334.004 198.566 334.056 198.618C334.108 198.67 334.146 198.721 334.185 198.76C334.224 198.812 334.288 198.851 334.379 198.889C334.469 198.928 334.534 198.954 334.585 198.98C334.637 199.005 334.714 199.044 334.844 199.07C334.973 199.096 335.063 199.122 335.115 199.135C335.166 199.148 335.257 199.173 335.412 199.199C335.567 199.238 335.657 199.264 335.709 199.264C336.019 199.341 336.264 199.393 336.419 199.432C336.574 199.483 336.793 199.561 337.078 199.677C337.362 199.793 337.568 199.909 337.723 200.039C337.865 200.168 337.994 200.336 338.111 200.555C338.227 200.775 338.291 201.02 338.291 201.291C338.291 201.937 338.033 202.466 337.529 202.854C337.026 203.241 336.354 203.435 335.528 203.435C334.624 203.435 333.927 203.241 333.436 202.841C332.945 202.453 332.687 201.872 332.661 201.123H333.746C333.798 202.066 334.405 202.531 335.554 202.531C336.044 202.531 336.432 202.44 336.729 202.234C337.026 202.027 337.181 201.756 337.181 201.42C337.181 201.201 337.103 201.02 336.948 200.865C336.793 200.723 336.613 200.62 336.432 200.555C336.238 200.49 335.967 200.413 335.618 200.323C335.567 200.323 335.528 200.31 335.502 200.297C335.425 200.284 335.257 200.245 334.999 200.193C334.74 200.142 334.559 200.09 334.456 200.051C334.34 200.026 334.172 199.974 333.965 199.896C333.759 199.819 333.604 199.742 333.501 199.664C333.397 199.587 333.281 199.483 333.152 199.354C333.023 199.225 332.945 199.083 332.894 198.915C332.842 198.747 332.816 198.554 332.816 198.334C332.816 197.74 333.036 197.262 333.501 196.901C333.965 196.552 334.585 196.371 335.36 196.371C336.135 196.371 336.781 196.565 337.271 196.926C337.762 197.301 338.02 197.83 338.02 198.502ZM345.536 196.565V205.811H344.438V202.298C343.973 203.034 343.237 203.409 342.204 203.409C341.248 203.409 340.512 203.073 339.996 202.402C339.479 201.73 339.234 200.917 339.234 199.935C339.234 198.838 339.505 197.972 340.06 197.327C340.603 196.681 341.352 196.358 342.307 196.358C343.315 196.358 344.051 196.746 344.515 197.508V196.565H345.536ZM342.398 197.288C341.778 197.288 341.287 197.52 340.926 197.998C340.551 198.476 340.37 199.109 340.37 199.909C340.37 200.697 340.551 201.317 340.913 201.782C341.274 202.247 341.778 202.479 342.411 202.479C343.043 202.479 343.547 202.247 343.921 201.782C344.283 201.317 344.477 200.671 344.477 199.858C344.477 199.057 344.283 198.424 343.921 197.972C343.547 197.508 343.043 197.288 342.398 197.288ZM348.864 201.795V203.228H347.431V201.795H348.864ZM353.788 194.008V194.964C353.595 194.938 353.388 194.912 353.181 194.912C352.833 194.912 352.6 194.977 352.497 195.08C352.394 195.196 352.342 195.441 352.342 195.803V196.565H353.62V197.469H352.342V203.228H351.231V197.469H350.108V196.565H351.231V195.674C351.231 195.08 351.386 194.641 351.696 194.37C352.006 194.099 352.458 193.956 353.078 193.956C353.259 193.956 353.504 193.982 353.788 194.008ZM357.454 196.565V197.469H356.124V201.356C356.124 201.575 356.124 201.717 356.124 201.782C356.124 201.859 356.15 201.95 356.202 202.066C356.24 202.182 356.318 202.26 356.421 202.285C356.524 202.324 356.667 202.337 356.86 202.337C357.015 202.337 357.222 202.324 357.454 202.298V203.241C357.144 203.28 356.86 203.293 356.615 203.293C356.305 203.293 356.047 203.267 355.84 203.189C355.633 203.125 355.466 203.047 355.362 202.957C355.259 202.879 355.182 202.724 355.13 202.505C355.078 202.285 355.039 202.105 355.039 201.95C355.027 201.795 355.027 201.549 355.027 201.188V201.136V201.072V201.007V197.469H353.903V196.565H355.027V194.589H356.124V196.565H357.454ZM360.352 201.795V203.228H358.919V201.795H360.352Z" fill="#B02E0C"/>
<path d="M98.9571 255.832C98.8538 256.994 98.4406 257.911 97.7433 258.557C97.046 259.202 96.1162 259.525 94.967 259.525C93.6627 259.525 92.6297 259.099 91.8678 258.234C91.093 257.369 90.7186 256.194 90.7186 254.722C90.7186 253.353 91.093 252.203 91.8678 251.287C92.6426 250.37 93.7015 249.905 95.0703 249.905C96.0387 249.905 96.891 250.176 97.627 250.693C98.376 251.222 98.7892 251.945 98.8667 252.875H97.6529C97.5237 252.281 97.2138 251.803 96.749 251.467C96.2841 251.132 95.7159 250.951 95.0315 250.951C94.0114 250.951 93.2366 251.312 92.7201 252.036C92.2036 252.759 91.9453 253.65 91.9453 254.709C91.9453 255.884 92.2165 256.801 92.7717 257.472C93.3141 258.143 94.076 258.479 95.0315 258.479C95.8063 258.479 96.439 258.26 96.9039 257.808C97.3688 257.356 97.64 256.697 97.7433 255.832H98.9571ZM103.214 252.449C104.221 252.449 104.996 252.759 105.564 253.379C106.12 253.985 106.404 254.838 106.404 255.935C106.404 257.072 106.12 257.95 105.564 258.57C104.996 259.202 104.209 259.512 103.201 259.512C102.181 259.512 101.381 259.202 100.812 258.583C100.231 257.963 99.9473 257.11 99.9473 256C99.9473 254.915 100.231 254.05 100.825 253.404C101.406 252.772 102.207 252.449 103.214 252.449ZM103.188 253.379C102.543 253.379 102.026 253.611 101.652 254.076C101.264 254.554 101.084 255.186 101.084 255.974C101.084 256.801 101.264 257.433 101.639 257.898C102.013 258.363 102.543 258.583 103.214 258.583C103.86 258.583 104.364 258.35 104.725 257.885C105.087 257.42 105.28 256.788 105.28 255.961C105.28 255.173 105.087 254.541 104.712 254.076C104.338 253.611 103.834 253.379 103.188 253.379ZM108.744 252.643V253.676C109.286 252.875 110.048 252.462 111.017 252.462C111.791 252.462 112.36 252.668 112.708 253.082C113.057 253.495 113.238 254.089 113.238 254.876V259.306H112.14V255.38C112.14 255.057 112.127 254.799 112.101 254.618C112.075 254.437 112.024 254.231 111.946 254.024C111.856 253.818 111.714 253.663 111.507 253.559C111.301 253.469 111.029 253.417 110.707 253.417C109.441 253.417 108.808 254.218 108.808 255.819V259.306H107.711V252.643H108.744ZM119.832 254.579H118.734C118.657 253.779 118.114 253.366 117.107 253.366C116.681 253.366 116.345 253.456 116.113 253.611C115.868 253.779 115.751 253.998 115.751 254.27C115.751 254.347 115.751 254.425 115.777 254.502C115.79 254.579 115.816 254.644 115.868 254.696C115.919 254.747 115.958 254.799 115.997 254.838C116.035 254.889 116.1 254.928 116.19 254.967C116.281 255.006 116.345 255.031 116.397 255.057C116.449 255.083 116.526 255.122 116.655 255.148C116.784 255.173 116.875 255.199 116.926 255.212C116.978 255.225 117.068 255.251 117.223 255.277C117.378 255.316 117.469 255.341 117.52 255.341C117.83 255.419 118.076 255.47 118.231 255.509C118.386 255.561 118.605 255.638 118.889 255.755C119.173 255.871 119.38 255.987 119.535 256.116C119.677 256.245 119.806 256.413 119.922 256.633C120.038 256.852 120.103 257.098 120.103 257.369C120.103 258.014 119.845 258.544 119.341 258.931C118.838 259.319 118.166 259.512 117.34 259.512C116.436 259.512 115.738 259.319 115.248 258.918C114.757 258.531 114.499 257.95 114.473 257.201H115.558C115.609 258.143 116.216 258.608 117.365 258.608C117.856 258.608 118.244 258.518 118.541 258.311C118.838 258.105 118.992 257.834 118.992 257.498C118.992 257.278 118.915 257.098 118.76 256.943C118.605 256.801 118.424 256.697 118.244 256.633C118.05 256.568 117.779 256.491 117.43 256.4C117.378 256.4 117.34 256.387 117.314 256.374C117.236 256.361 117.068 256.323 116.81 256.271C116.552 256.219 116.371 256.168 116.268 256.129C116.152 256.103 115.984 256.052 115.777 255.974C115.571 255.897 115.416 255.819 115.312 255.742C115.209 255.664 115.093 255.561 114.964 255.432C114.834 255.303 114.757 255.161 114.705 254.993C114.654 254.825 114.628 254.631 114.628 254.412C114.628 253.818 114.847 253.34 115.312 252.978C115.777 252.63 116.397 252.449 117.172 252.449C117.947 252.449 118.592 252.643 119.083 253.004C119.574 253.379 119.832 253.908 119.832 254.579ZM124.196 252.643V253.546H122.866V257.433C122.866 257.653 122.866 257.795 122.866 257.859C122.866 257.937 122.892 258.027 122.944 258.143C122.983 258.26 123.06 258.337 123.163 258.363C123.267 258.402 123.409 258.415 123.602 258.415C123.757 258.415 123.964 258.402 124.196 258.376V259.319C123.887 259.357 123.602 259.37 123.357 259.37C123.047 259.37 122.789 259.344 122.582 259.267C122.376 259.202 122.208 259.125 122.105 259.034C122.001 258.957 121.924 258.802 121.872 258.583C121.82 258.363 121.782 258.182 121.782 258.027C121.769 257.872 121.769 257.627 121.769 257.265V257.214V257.149V257.085V253.546H120.645V252.643H121.769V250.667H122.866V252.643H124.196ZM128.889 252.488L128.877 253.637C128.799 253.624 128.709 253.624 128.592 253.624C128.244 253.624 127.934 253.676 127.676 253.779C127.417 253.882 127.224 254.024 127.069 254.192C126.914 254.373 126.798 254.579 126.694 254.838C126.604 255.096 126.539 255.354 126.513 255.613C126.488 255.871 126.475 256.168 126.475 256.491V259.306H125.377V252.643H126.423V254.076C126.862 253.017 127.676 252.488 128.889 252.488ZM135.243 252.643L135.23 259.306H134.21V258.26C133.642 259.086 132.88 259.486 131.911 259.486C131.214 259.486 130.659 259.293 130.271 258.905C129.884 258.518 129.69 257.963 129.69 257.227V252.643H130.788V256.93C130.788 257.459 130.891 257.859 131.098 258.131C131.304 258.402 131.666 258.531 132.195 258.531C133.487 258.531 134.145 257.73 134.145 256.129V252.643H135.243ZM142.625 256.878C142.521 257.679 142.224 258.324 141.708 258.789C141.191 259.267 140.533 259.499 139.706 259.499C138.699 259.499 137.924 259.189 137.369 258.57C136.827 257.95 136.543 257.11 136.543 256.064C136.543 254.954 136.84 254.076 137.408 253.43C137.989 252.785 138.764 252.449 139.745 252.449C140.571 252.449 141.217 252.655 141.708 253.069C142.199 253.482 142.496 254.063 142.573 254.825H141.437C141.243 253.856 140.688 253.379 139.771 253.379C139.125 253.379 138.622 253.611 138.26 254.076C137.886 254.541 137.705 255.186 137.705 255.987C137.705 256.788 137.873 257.433 138.234 257.898C138.583 258.363 139.074 258.595 139.693 258.595C140.184 258.595 140.597 258.44 140.907 258.156C141.217 257.859 141.424 257.433 141.514 256.878H142.625ZM146.681 252.643V253.546H145.351V257.433C145.351 257.653 145.351 257.795 145.351 257.859C145.351 257.937 145.377 258.027 145.428 258.143C145.467 258.26 145.544 258.337 145.648 258.363C145.751 258.402 145.893 258.415 146.087 258.415C146.242 258.415 146.448 258.402 146.681 258.376V259.319C146.371 259.357 146.087 259.37 145.841 259.37C145.532 259.37 145.273 259.344 145.067 259.267C144.86 259.202 144.692 259.125 144.589 259.034C144.486 258.957 144.408 258.802 144.356 258.583C144.305 258.363 144.266 258.182 144.266 258.027C144.253 257.872 144.253 257.627 144.253 257.265V257.214V257.149V257.085V253.546H143.13V252.643H144.253V250.667H145.351V252.643H146.681ZM149.062 250.112V251.455H147.952V250.112H149.062ZM149.062 252.643V259.306H147.952V252.643H149.062ZM153.681 252.449C154.688 252.449 155.463 252.759 156.031 253.379C156.586 253.985 156.871 254.838 156.871 255.935C156.871 257.072 156.586 257.95 156.031 258.57C155.463 259.202 154.675 259.512 153.668 259.512C152.648 259.512 151.847 259.202 151.279 258.583C150.698 257.963 150.414 257.11 150.414 256C150.414 254.915 150.698 254.05 151.292 253.404C151.873 252.772 152.674 252.449 153.681 252.449ZM153.655 253.379C153.01 253.379 152.493 253.611 152.119 254.076C151.731 254.554 151.55 255.186 151.55 255.974C151.55 256.801 151.731 257.433 152.106 257.898C152.48 258.363 153.01 258.583 153.681 258.583C154.327 258.583 154.83 258.35 155.192 257.885C155.553 257.42 155.747 256.788 155.747 255.961C155.747 255.173 155.553 254.541 155.179 254.076C154.804 253.611 154.301 253.379 153.655 253.379ZM159.211 252.643V253.676C159.753 252.875 160.515 252.462 161.483 252.462C162.258 252.462 162.826 252.668 163.175 253.082C163.524 253.495 163.704 254.089 163.704 254.876V259.306H162.607V255.38C162.607 255.057 162.594 254.799 162.568 254.618C162.542 254.437 162.491 254.231 162.413 254.024C162.323 253.818 162.181 253.663 161.974 253.559C161.767 253.469 161.496 253.417 161.173 253.417C159.908 253.417 159.275 254.218 159.275 255.819V259.306H158.178V252.643H159.211ZM176.927 255.832C176.824 256.994 176.411 257.911 175.713 258.557C175.016 259.202 174.086 259.525 172.937 259.525C171.633 259.525 170.6 259.099 169.838 258.234C169.063 257.369 168.689 256.194 168.689 254.722C168.689 253.353 169.063 252.203 169.838 251.287C170.613 250.37 171.672 249.905 173.04 249.905C174.009 249.905 174.861 250.176 175.597 250.693C176.346 251.222 176.759 251.945 176.837 252.875H175.623C175.494 252.281 175.184 251.803 174.719 251.467C174.254 251.132 173.686 250.951 173.002 250.951C171.981 250.951 171.207 251.312 170.69 252.036C170.174 252.759 169.915 253.65 169.915 254.709C169.915 255.884 170.187 256.801 170.742 257.472C171.284 258.143 172.046 258.479 173.002 258.479C173.776 258.479 174.409 258.26 174.874 257.808C175.339 257.356 175.61 256.697 175.713 255.832H176.927ZM181.184 252.449C182.192 252.449 182.966 252.759 183.534 253.379C184.09 253.985 184.374 254.838 184.374 255.935C184.374 257.072 184.09 257.95 183.534 258.57C182.966 259.202 182.179 259.512 181.171 259.512C180.151 259.512 179.351 259.202 178.782 258.583C178.201 257.963 177.917 257.11 177.917 256C177.917 254.915 178.201 254.05 178.795 253.404C179.376 252.772 180.177 252.449 181.184 252.449ZM181.158 253.379C180.513 253.379 179.996 253.611 179.622 254.076C179.234 254.554 179.054 255.186 179.054 255.974C179.054 256.801 179.234 257.433 179.609 257.898C179.983 258.363 180.513 258.583 181.184 258.583C181.83 258.583 182.334 258.35 182.695 257.885C183.057 257.42 183.25 256.788 183.25 255.961C183.25 255.173 183.057 254.541 182.682 254.076C182.308 253.611 181.804 253.379 181.158 253.379ZM190.627 254.579H189.529C189.451 253.779 188.909 253.366 187.902 253.366C187.476 253.366 187.14 253.456 186.908 253.611C186.662 253.779 186.546 253.998 186.546 254.27C186.546 254.347 186.546 254.425 186.572 254.502C186.585 254.579 186.611 254.644 186.662 254.696C186.714 254.747 186.753 254.799 186.791 254.838C186.83 254.889 186.895 254.928 186.985 254.967C187.075 255.006 187.14 255.031 187.192 255.057C187.243 255.083 187.321 255.122 187.45 255.148C187.579 255.173 187.669 255.199 187.721 255.212C187.773 255.225 187.863 255.251 188.018 255.277C188.173 255.316 188.263 255.341 188.315 255.341C188.625 255.419 188.87 255.47 189.025 255.509C189.18 255.561 189.4 255.638 189.684 255.755C189.968 255.871 190.175 255.987 190.33 256.116C190.472 256.245 190.601 256.413 190.717 256.633C190.833 256.852 190.898 257.098 190.898 257.369C190.898 258.014 190.639 258.544 190.136 258.931C189.632 259.319 188.961 259.512 188.134 259.512C187.23 259.512 186.533 259.319 186.042 258.918C185.552 258.531 185.293 257.95 185.268 257.201H186.352C186.404 258.143 187.011 258.608 188.16 258.608C188.651 258.608 189.038 258.518 189.335 258.311C189.632 258.105 189.787 257.834 189.787 257.498C189.787 257.278 189.71 257.098 189.555 256.943C189.4 256.801 189.219 256.697 189.038 256.633C188.845 256.568 188.573 256.491 188.225 256.4C188.173 256.4 188.134 256.387 188.109 256.374C188.031 256.361 187.863 256.323 187.605 256.271C187.347 256.219 187.166 256.168 187.063 256.129C186.946 256.103 186.778 256.052 186.572 255.974C186.365 255.897 186.21 255.819 186.107 255.742C186.004 255.664 185.887 255.561 185.758 255.432C185.629 255.303 185.552 255.161 185.5 254.993C185.448 254.825 185.423 254.631 185.423 254.412C185.423 253.818 185.642 253.34 186.107 252.978C186.572 252.63 187.192 252.449 187.966 252.449C188.741 252.449 189.387 252.643 189.878 253.004C190.368 253.379 190.627 253.908 190.627 254.579ZM194.991 252.643V253.546H193.661V257.433C193.661 257.653 193.661 257.795 193.661 257.859C193.661 257.937 193.687 258.027 193.739 258.143C193.777 258.26 193.855 258.337 193.958 258.363C194.061 258.402 194.203 258.415 194.397 258.415C194.552 258.415 194.759 258.402 194.991 258.376V259.319C194.681 259.357 194.397 259.37 194.152 259.37C193.842 259.37 193.584 259.344 193.377 259.267C193.17 259.202 193.003 259.125 192.899 259.034C192.796 258.957 192.718 258.802 192.667 258.583C192.615 258.363 192.576 258.182 192.576 258.027C192.564 257.872 192.564 257.627 192.564 257.265V257.214V257.149V257.085V253.546H191.44V252.643H192.564V250.667H193.661V252.643H194.991Z" fill="#060C12"/>
<g opacity="0.3" filter="url(#filter2_f_286_2566)">
<ellipse cx="234.9" cy="317.647" rx="101.564" ry="1.84472" fill="#060C12"/>
</g>
<rect x="90.1504" y="267.84" width="288.699" height="53.4969" rx="12.913" fill="white"/>
<rect x="90.6116" y="268.301" width="287.776" height="52.5745" rx="12.4519" stroke="#060C12" stroke-opacity="0.1" stroke-width="0.92236"/>
<path opacity="0.5" d="M115.195 289.542V290.752H109.307V294.043H114.812V295.209H109.307V298.839H115.269V300.049H107.92V289.542H115.195ZM117.901 292.434V293.615C118.521 292.7 119.391 292.228 120.498 292.228C121.384 292.228 122.033 292.464 122.431 292.936C122.83 293.408 123.037 294.087 123.037 294.987V300.049H121.782V295.563C121.782 295.194 121.767 294.899 121.738 294.692C121.708 294.486 121.649 294.25 121.561 294.013C121.457 293.777 121.295 293.6 121.059 293.482C120.823 293.379 120.513 293.32 120.144 293.32C118.698 293.32 117.975 294.235 117.975 296.065V300.049H116.72V292.434H117.901ZM128.182 292.434V293.467H126.662V297.909C126.662 298.16 126.662 298.323 126.662 298.396C126.662 298.485 126.692 298.588 126.751 298.721C126.795 298.854 126.883 298.942 127.001 298.972C127.12 299.016 127.282 299.031 127.503 299.031C127.68 299.031 127.916 299.016 128.182 298.987V300.064C127.828 300.108 127.503 300.123 127.223 300.123C126.869 300.123 126.573 300.094 126.337 300.005C126.101 299.931 125.909 299.843 125.791 299.739C125.673 299.651 125.585 299.474 125.526 299.223C125.467 298.972 125.422 298.765 125.422 298.588C125.408 298.411 125.408 298.131 125.408 297.718V297.659V297.585V297.511V293.467H124.124V292.434H125.408V290.176H126.662V292.434H128.182ZM136.084 297.644C135.7 299.415 134.593 300.3 132.763 300.3C131.642 300.3 130.756 299.961 130.122 299.252C129.487 298.559 129.177 297.585 129.177 296.345C129.177 295.12 129.502 294.131 130.151 293.364C130.801 292.597 131.656 292.213 132.719 292.213C133.885 292.213 134.756 292.611 135.316 293.408C135.877 294.205 136.172 295.194 136.172 296.404V296.581H130.446L130.432 296.67C130.432 297.481 130.638 298.116 131.066 298.574C131.479 299.046 132.07 299.267 132.808 299.267C133.354 299.267 133.782 299.149 134.106 298.883C134.431 298.633 134.682 298.219 134.859 297.644H136.084ZM134.874 295.563C134.815 294.84 134.593 294.279 134.21 293.866C133.826 293.453 133.309 293.246 132.69 293.246C132.07 293.246 131.568 293.453 131.169 293.866C130.756 294.279 130.52 294.855 130.446 295.563H134.874ZM141.472 292.257L141.457 293.571C141.369 293.556 141.265 293.556 141.133 293.556C140.734 293.556 140.38 293.615 140.085 293.733C139.79 293.851 139.568 294.013 139.391 294.205C139.214 294.412 139.081 294.648 138.963 294.943C138.86 295.238 138.786 295.533 138.757 295.829C138.727 296.124 138.712 296.463 138.712 296.832V300.049H137.458V292.434H138.653V294.072C139.155 292.862 140.085 292.257 141.472 292.257ZM145.786 292.434H147.188L149.343 298.824L151.438 292.434H152.752L149.963 300.049H148.62L145.786 292.434ZM160.647 299.046V300.035C160.382 300.123 160.101 300.182 159.791 300.182C159.068 300.182 158.699 299.798 158.684 299.061C157.961 299.857 157.046 300.271 155.925 300.271C155.172 300.271 154.582 300.079 154.139 299.695C153.696 299.311 153.49 298.78 153.49 298.116C153.49 296.758 154.39 295.961 156.19 295.74C156.308 295.711 156.471 295.696 156.707 295.681C157.563 295.578 158.079 295.46 158.286 295.342C158.507 295.179 158.625 294.914 158.625 294.53C158.625 293.689 158.05 293.276 156.899 293.276C156.308 293.276 155.851 293.394 155.556 293.63C155.246 293.866 155.069 294.264 155.01 294.825H153.785C153.8 293.999 154.095 293.364 154.656 292.921C155.216 292.464 155.984 292.242 156.973 292.242C158.035 292.242 158.832 292.479 159.363 292.98C159.526 293.128 159.644 293.335 159.732 293.6C159.806 293.851 159.85 294.058 159.865 294.22C159.865 294.382 159.88 294.633 159.88 294.958C159.88 295.327 159.865 295.888 159.85 296.64C159.821 297.408 159.821 297.968 159.821 298.337C159.821 298.618 159.85 298.81 159.924 298.928C159.998 299.046 160.131 299.09 160.337 299.09C160.411 299.09 160.514 299.075 160.647 299.046ZM158.625 296.109C158.537 296.168 158.434 296.227 158.345 296.286C158.242 296.33 158.109 296.375 157.961 296.404C157.814 296.434 157.71 296.448 157.651 296.463C157.592 296.478 157.474 296.493 157.268 296.522C157.061 296.552 156.943 296.566 156.943 296.566C156.633 296.596 156.426 296.626 156.338 296.64C156.249 296.655 156.072 296.699 155.807 296.773C155.541 296.832 155.364 296.921 155.261 297.009C155.143 297.098 155.039 297.216 154.936 297.393C154.833 297.57 154.788 297.777 154.788 298.013C154.788 298.396 154.921 298.706 155.187 298.942C155.452 299.164 155.836 299.282 156.308 299.282C156.899 299.282 157.445 299.105 157.917 298.751C158.389 298.396 158.625 297.968 158.625 297.496V296.109ZM163.158 289.542V300.049H161.888V289.542H163.158ZM171.417 292.434L171.402 300.049H170.237V298.854C169.587 299.798 168.717 300.256 167.61 300.256C166.813 300.256 166.178 300.035 165.736 299.592C165.293 299.149 165.071 298.515 165.071 297.673V292.434H166.326V297.334C166.326 297.939 166.444 298.396 166.68 298.706C166.916 299.016 167.329 299.164 167.934 299.164C169.41 299.164 170.163 298.249 170.163 296.419V292.434H171.417ZM179.809 297.644C179.426 299.415 178.319 300.3 176.489 300.3C175.367 300.3 174.482 299.961 173.847 299.252C173.213 298.559 172.903 297.585 172.903 296.345C172.903 295.12 173.227 294.131 173.877 293.364C174.526 292.597 175.382 292.213 176.445 292.213C177.611 292.213 178.481 292.611 179.042 293.408C179.603 294.205 179.898 295.194 179.898 296.404V296.581H174.172L174.157 296.67C174.157 297.481 174.364 298.116 174.792 298.574C175.205 299.046 175.795 299.267 176.533 299.267C177.079 299.267 177.507 299.149 177.832 298.883C178.157 298.633 178.407 298.219 178.585 297.644H179.809ZM178.599 295.563C178.54 294.84 178.319 294.279 177.935 293.866C177.552 293.453 177.035 293.246 176.415 293.246C175.795 293.246 175.294 293.453 174.895 293.866C174.482 294.279 174.246 294.855 174.172 295.563H178.599Z" fill="#060C12"/>
<path d="M359.923 293.274C359.884 293.583 359.806 293.855 359.677 294.087C359.548 294.332 359.393 294.552 359.212 294.733C359.019 294.914 358.799 295.068 358.567 295.198C358.321 295.327 358.076 295.417 357.818 295.482L360.904 299.549H359.432L357.146 296.515C356.888 296.179 356.668 295.947 356.462 295.792C356.255 295.637 356.049 295.559 355.829 295.559V294.617H356.591C356.849 294.617 357.108 294.604 357.353 294.565C357.598 294.526 357.818 294.462 358.024 294.358C358.218 294.255 358.386 294.126 358.515 293.945C358.644 293.777 358.722 293.558 358.747 293.274H355.584L355.971 292.512H358.696C358.618 292.163 358.45 291.879 358.192 291.659C357.934 291.453 357.585 291.337 357.146 291.311H355.584L355.971 290.549H361.64L361.253 291.311H359.367C359.664 291.647 359.845 292.047 359.91 292.512H361.653L361.266 293.274H359.923Z" fill="#B02E0C"/>
</g>
<g filter="url(#filter3_dddd_286_2566)">
<rect x="315" y="27" width="128" height="140" rx="12" fill="#FBFBFB"/>
<rect x="315.5" y="27.5" width="127" height="139" rx="11.5" stroke="#B02E0C" stroke-opacity="0.04"/>
<path d="M342 76C342 55.5655 358.565 39 379 39C399.435 39 416 55.5655 416 76C416 96.4345 399.435 113 379 113C358.565 113 342 96.4345 342 76Z" fill="#475569" fill-opacity="0.04"/>
<path d="M379 39.5C399.158 39.5 415.5 55.8416 415.5 76C415.5 96.1584 399.158 112.5 379 112.5C358.842 112.5 342.5 96.1584 342.5 76C342.5 55.8416 358.842 39.5 379 39.5Z" stroke="#475569" stroke-opacity="0.04"/>
<path d="M388.395 61H370.27C369.358 61.0007 368.484 61.363 367.84 62.0076C367.195 62.6521 366.833 63.526 366.832 64.4375V87.5625C366.833 88.474 367.195 89.3479 367.84 89.9924C368.484 90.637 369.358 90.9993 370.27 91H388.395C389.306 90.9993 390.18 90.637 390.824 89.9924C391.469 89.3479 391.831 88.474 391.832 87.5625V64.4375C391.831 63.526 391.469 62.6521 390.824 62.0076C390.18 61.363 389.306 61.0007 388.395 61ZM376.557 84.4C376.649 84.4858 376.723 84.5893 376.774 84.7043C376.825 84.8193 376.853 84.9435 376.855 85.0693C376.857 85.1952 376.834 85.3203 376.787 85.437C376.74 85.5537 376.67 85.6598 376.581 85.7488C376.492 85.8378 376.386 85.908 376.269 85.9552C376.152 86.0023 376.027 86.0255 375.901 86.0232C375.776 86.021 375.651 85.9935 375.536 85.9422C375.421 85.891 375.318 85.8171 375.232 85.725L374.332 84.8263L373.432 85.7262C373.345 85.8135 373.242 85.8828 373.128 85.93C373.014 85.9772 372.892 86.0015 372.769 86.0014C372.646 86.0012 372.524 85.9768 372.411 85.9293C372.297 85.8819 372.194 85.8125 372.107 85.725C372.02 85.6379 371.951 85.5346 371.904 85.4208C371.857 85.307 371.832 85.185 371.832 85.0619C371.832 84.9387 371.857 84.8168 371.904 84.703C371.951 84.5892 372.02 84.4858 372.107 84.3988L373.006 83.5L372.106 82.6C372.019 82.5129 371.95 82.4095 371.902 82.2958C371.855 82.182 371.831 82.06 371.831 81.9369C371.831 81.8137 371.855 81.6918 371.902 81.578C371.95 81.4642 372.019 81.3608 372.106 81.2738C372.193 81.1867 372.296 81.1176 372.41 81.0705C372.524 81.0233 372.646 80.9991 372.769 80.9991C372.892 80.9991 373.014 81.0233 373.128 81.0705C373.242 81.1176 373.345 81.1867 373.432 81.2738L374.332 82.1737L375.232 81.2738C375.319 81.1867 375.422 81.1176 375.536 81.0705C375.65 81.0233 375.772 80.9991 375.895 80.9991C376.018 80.9991 376.14 81.0233 376.254 81.0705C376.368 81.1176 376.471 81.1867 376.558 81.2738C376.645 81.3608 376.714 81.4642 376.762 81.578C376.809 81.6918 376.833 81.8137 376.833 81.9369C376.833 82.06 376.809 82.182 376.762 82.2958C376.714 82.4095 376.645 82.5129 376.558 82.6L375.658 83.5L376.557 84.4ZM375.895 76.9375H375.27V77.5625C375.27 77.8111 375.171 78.0496 374.995 78.2254C374.819 78.4012 374.581 78.5 374.332 78.5C374.083 78.5 373.845 78.4012 373.669 78.2254C373.493 78.0496 373.395 77.8111 373.395 77.5625V76.9375H372.77C372.521 76.9375 372.282 76.8387 372.107 76.6629C371.931 76.4871 371.832 76.2486 371.832 76C371.832 75.7514 371.931 75.5129 372.107 75.3371C372.282 75.1613 372.521 75.0625 372.77 75.0625H373.395V74.4375C373.395 74.1889 373.493 73.9504 373.669 73.7746C373.845 73.5988 374.083 73.5 374.332 73.5C374.581 73.5 374.819 73.5988 374.995 73.7746C375.171 73.9504 375.27 74.1889 375.27 74.4375V75.0625H375.895C376.143 75.0625 376.382 75.1613 376.557 75.3371C376.733 75.5129 376.832 75.7514 376.832 76C376.832 76.2486 376.733 76.4871 376.557 76.6629C376.382 76.8387 376.143 76.9375 375.895 76.9375ZM385.895 86H382.77C382.521 86 382.282 85.9012 382.107 85.7254C381.931 85.5496 381.832 85.3111 381.832 85.0625C381.832 84.8139 381.931 84.5754 382.107 84.3996C382.282 84.2238 382.521 84.125 382.77 84.125H385.895C386.143 84.125 386.382 84.2238 386.557 84.3996C386.733 84.5754 386.832 84.8139 386.832 85.0625C386.832 85.3111 386.733 85.5496 386.557 85.7254C386.382 85.9012 386.143 86 385.895 86ZM385.895 82.875H382.77C382.521 82.875 382.282 82.7762 382.107 82.6004C381.931 82.4246 381.832 82.1861 381.832 81.9375C381.832 81.6889 381.931 81.4504 382.107 81.2746C382.282 81.0988 382.521 81 382.77 81H385.895C386.143 81 386.382 81.0988 386.557 81.2746C386.733 81.4504 386.832 81.6889 386.832 81.9375C386.832 82.1861 386.733 82.4246 386.557 82.6004C386.382 82.7762 386.143 82.875 385.895 82.875ZM385.895 77.25H382.77C382.521 77.25 382.282 77.1512 382.107 76.9754C381.931 76.7996 381.832 76.5611 381.832 76.3125C381.832 76.0639 381.931 75.8254 382.107 75.6496C382.282 75.4738 382.521 75.375 382.77 75.375H385.895C386.143 75.375 386.382 75.4738 386.557 75.6496C386.733 75.8254 386.832 76.0639 386.832 76.3125C386.832 76.5611 386.733 76.7996 386.557 76.9754C386.382 77.1512 386.143 77.25 385.895 77.25ZM388.082 68.8125C388.082 70.0188 387.101 71 385.895 71H372.77C371.563 71 370.582 70.0188 370.582 68.8125V66.9375C370.582 65.7312 371.563 64.75 372.77 64.75H385.895C387.101 64.75 388.082 65.7312 388.082 66.9375V68.8125Z" fill="#B02E0C"/>
<path d="M348.23 133.234C348.118 134.494 347.67 135.488 346.914 136.188C346.158 136.888 345.15 137.238 343.904 137.238C342.49 137.238 341.37 136.776 340.544 135.838C339.704 134.9 339.298 133.626 339.298 132.03C339.298 130.546 339.704 129.3 340.544 128.306C341.384 127.312 342.532 126.808 344.016 126.808C345.066 126.808 345.99 127.102 346.788 127.662C347.6 128.236 348.048 129.02 348.132 130.028H346.816C346.676 129.384 346.34 128.866 345.836 128.502C345.332 128.138 344.716 127.942 343.974 127.942C342.868 127.942 342.028 128.334 341.468 129.118C340.908 129.902 340.628 130.868 340.628 132.016C340.628 133.29 340.922 134.284 341.524 135.012C342.112 135.74 342.938 136.104 343.974 136.104C344.814 136.104 345.5 135.866 346.004 135.376C346.508 134.886 346.802 134.172 346.914 133.234H348.23ZM352.845 129.566C353.937 129.566 354.777 129.902 355.393 130.574C355.995 131.232 356.303 132.156 356.303 133.346C356.303 134.578 355.995 135.53 355.393 136.202C354.777 136.888 353.923 137.224 352.831 137.224C351.725 137.224 350.857 136.888 350.241 136.216C349.611 135.544 349.303 134.62 349.303 133.416C349.303 132.24 349.611 131.302 350.255 130.602C350.885 129.916 351.753 129.566 352.845 129.566ZM352.817 130.574C352.117 130.574 351.557 130.826 351.151 131.33C350.731 131.848 350.535 132.534 350.535 133.388C350.535 134.284 350.731 134.97 351.137 135.474C351.543 135.978 352.117 136.216 352.845 136.216C353.545 136.216 354.091 135.964 354.483 135.46C354.875 134.956 355.085 134.27 355.085 133.374C355.085 132.52 354.875 131.834 354.469 131.33C354.063 130.826 353.517 130.574 352.817 130.574ZM358.84 129.776V130.896C359.428 130.028 360.254 129.58 361.304 129.58C362.144 129.58 362.76 129.804 363.138 130.252C363.516 130.7 363.712 131.344 363.712 132.198V137H362.522V132.744C362.522 132.394 362.508 132.114 362.48 131.918C362.452 131.722 362.396 131.498 362.312 131.274C362.214 131.05 362.06 130.882 361.836 130.77C361.612 130.672 361.318 130.616 360.968 130.616C359.596 130.616 358.91 131.484 358.91 133.22V137H357.72V129.776H358.84ZM370.862 131.876H369.672C369.588 131.008 369 130.56 367.908 130.56C367.446 130.56 367.082 130.658 366.83 130.826C366.564 131.008 366.438 131.246 366.438 131.54C366.438 131.624 366.438 131.708 366.466 131.792C366.48 131.876 366.508 131.946 366.564 132.002C366.62 132.058 366.662 132.114 366.704 132.156C366.746 132.212 366.816 132.254 366.914 132.296C367.012 132.338 367.082 132.366 367.138 132.394C367.194 132.422 367.278 132.464 367.418 132.492C367.558 132.52 367.656 132.548 367.712 132.562C367.768 132.576 367.866 132.604 368.034 132.632C368.202 132.674 368.3 132.702 368.356 132.702C368.692 132.786 368.958 132.842 369.126 132.884C369.294 132.94 369.532 133.024 369.84 133.15C370.148 133.276 370.372 133.402 370.54 133.542C370.694 133.682 370.834 133.864 370.96 134.102C371.086 134.34 371.156 134.606 371.156 134.9C371.156 135.6 370.876 136.174 370.33 136.594C369.784 137.014 369.056 137.224 368.16 137.224C367.18 137.224 366.424 137.014 365.892 136.58C365.36 136.16 365.08 135.53 365.052 134.718H366.228C366.284 135.74 366.942 136.244 368.188 136.244C368.72 136.244 369.14 136.146 369.462 135.922C369.784 135.698 369.952 135.404 369.952 135.04C369.952 134.802 369.868 134.606 369.7 134.438C369.532 134.284 369.336 134.172 369.14 134.102C368.93 134.032 368.636 133.948 368.258 133.85C368.202 133.85 368.16 133.836 368.132 133.822C368.048 133.808 367.866 133.766 367.586 133.71C367.306 133.654 367.11 133.598 366.998 133.556C366.872 133.528 366.69 133.472 366.466 133.388C366.242 133.304 366.074 133.22 365.962 133.136C365.85 133.052 365.724 132.94 365.584 132.8C365.444 132.66 365.36 132.506 365.304 132.324C365.248 132.142 365.22 131.932 365.22 131.694C365.22 131.05 365.458 130.532 365.962 130.14C366.466 129.762 367.138 129.566 367.978 129.566C368.818 129.566 369.518 129.776 370.05 130.168C370.582 130.574 370.862 131.148 370.862 131.876ZM375.594 129.776V130.756H374.152V134.97C374.152 135.208 374.152 135.362 374.152 135.432C374.152 135.516 374.18 135.614 374.236 135.74C374.278 135.866 374.362 135.95 374.474 135.978C374.586 136.02 374.74 136.034 374.95 136.034C375.118 136.034 375.342 136.02 375.594 135.992V137.014C375.258 137.056 374.95 137.07 374.684 137.07C374.348 137.07 374.068 137.042 373.844 136.958C373.62 136.888 373.438 136.804 373.326 136.706C373.214 136.622 373.13 136.454 373.074 136.216C373.018 135.978 372.976 135.782 372.976 135.614C372.962 135.446 372.962 135.18 372.962 134.788V134.732V134.662V134.592V130.756H371.744V129.776H372.962V127.634H374.152V129.776H375.594ZM380.682 129.608L380.668 130.854C380.584 130.84 380.486 130.84 380.36 130.84C379.982 130.84 379.646 130.896 379.366 131.008C379.086 131.12 378.876 131.274 378.708 131.456C378.54 131.652 378.414 131.876 378.302 132.156C378.204 132.436 378.134 132.716 378.106 132.996C378.078 133.276 378.064 133.598 378.064 133.948V137H376.874V129.776H378.008V131.33C378.484 130.182 379.366 129.608 380.682 129.608ZM387.57 129.776L387.556 137H386.45V135.866C385.834 136.762 385.008 137.196 383.958 137.196C383.202 137.196 382.6 136.986 382.18 136.566C381.76 136.146 381.55 135.544 381.55 134.746V129.776H382.74V134.424C382.74 134.998 382.852 135.432 383.076 135.726C383.3 136.02 383.692 136.16 384.266 136.16C385.666 136.16 386.38 135.292 386.38 133.556V129.776H387.57ZM395.573 134.368C395.461 135.236 395.139 135.936 394.579 136.44C394.019 136.958 393.305 137.21 392.409 137.21C391.317 137.21 390.477 136.874 389.875 136.202C389.287 135.53 388.979 134.62 388.979 133.486C388.979 132.282 389.301 131.33 389.917 130.63C390.547 129.93 391.387 129.566 392.451 129.566C393.347 129.566 394.047 129.79 394.579 130.238C395.111 130.686 395.433 131.316 395.517 132.142H394.285C394.075 131.092 393.473 130.574 392.479 130.574C391.779 130.574 391.233 130.826 390.841 131.33C390.435 131.834 390.239 132.534 390.239 133.402C390.239 134.27 390.421 134.97 390.813 135.474C391.191 135.978 391.723 136.23 392.395 136.23C392.927 136.23 393.375 136.062 393.711 135.754C394.047 135.432 394.271 134.97 394.369 134.368H395.573ZM399.97 129.776V130.756H398.528V134.97C398.528 135.208 398.528 135.362 398.528 135.432C398.528 135.516 398.556 135.614 398.612 135.74C398.654 135.866 398.738 135.95 398.85 135.978C398.962 136.02 399.116 136.034 399.326 136.034C399.494 136.034 399.718 136.02 399.97 135.992V137.014C399.634 137.056 399.326 137.07 399.06 137.07C398.724 137.07 398.444 137.042 398.22 136.958C397.996 136.888 397.814 136.804 397.702 136.706C397.59 136.622 397.506 136.454 397.45 136.216C397.394 135.978 397.352 135.782 397.352 135.614C397.338 135.446 397.338 135.18 397.338 134.788V134.732V134.662V134.592V130.756H396.12V129.776H397.338V127.634H398.528V129.776H399.97ZM402.552 127.032V128.488H401.348V127.032H402.552ZM402.552 129.776V137H401.348V129.776H402.552ZM407.56 129.566C408.652 129.566 409.492 129.902 410.108 130.574C410.71 131.232 411.018 132.156 411.018 133.346C411.018 134.578 410.71 135.53 410.108 136.202C409.492 136.888 408.638 137.224 407.546 137.224C406.44 137.224 405.572 136.888 404.956 136.216C404.326 135.544 404.018 134.62 404.018 133.416C404.018 132.24 404.326 131.302 404.97 130.602C405.6 129.916 406.468 129.566 407.56 129.566ZM407.532 130.574C406.832 130.574 406.272 130.826 405.866 131.33C405.446 131.848 405.25 132.534 405.25 133.388C405.25 134.284 405.446 134.97 405.852 135.474C406.258 135.978 406.832 136.216 407.56 136.216C408.26 136.216 408.806 135.964 409.198 135.46C409.59 134.956 409.8 134.27 409.8 133.374C409.8 132.52 409.59 131.834 409.184 131.33C408.778 130.826 408.232 130.574 407.532 130.574ZM413.555 129.776V130.896C414.143 130.028 414.969 129.58 416.019 129.58C416.859 129.58 417.475 129.804 417.853 130.252C418.231 130.7 418.427 131.344 418.427 132.198V137H417.237V132.744C417.237 132.394 417.223 132.114 417.195 131.918C417.167 131.722 417.111 131.498 417.027 131.274C416.929 131.05 416.775 130.882 416.551 130.77C416.327 130.672 416.033 130.616 415.683 130.616C414.311 130.616 413.625 131.484 413.625 133.22V137H412.435V129.776H413.555ZM373.769 151.234C373.657 152.494 373.209 153.488 372.453 154.188C371.697 154.888 370.689 155.238 369.443 155.238C368.029 155.238 366.909 154.776 366.083 153.838C365.243 152.9 364.837 151.626 364.837 150.03C364.837 148.546 365.243 147.3 366.083 146.306C366.923 145.312 368.071 144.808 369.555 144.808C370.605 144.808 371.529 145.102 372.327 145.662C373.139 146.236 373.587 147.02 373.671 148.028H372.355C372.215 147.384 371.879 146.866 371.375 146.502C370.871 146.138 370.255 145.942 369.513 145.942C368.407 145.942 367.567 146.334 367.007 147.118C366.447 147.902 366.167 148.868 366.167 150.016C366.167 151.29 366.461 152.284 367.063 153.012C367.651 153.74 368.477 154.104 369.513 154.104C370.353 154.104 371.039 153.866 371.543 153.376C372.047 152.886 372.341 152.172 372.453 151.234H373.769ZM378.384 147.566C379.476 147.566 380.316 147.902 380.932 148.574C381.534 149.232 381.842 150.156 381.842 151.346C381.842 152.578 381.534 153.53 380.932 154.202C380.316 154.888 379.462 155.224 378.37 155.224C377.264 155.224 376.396 154.888 375.78 154.216C375.15 153.544 374.842 152.62 374.842 151.416C374.842 150.24 375.15 149.302 375.794 148.602C376.424 147.916 377.292 147.566 378.384 147.566ZM378.356 148.574C377.656 148.574 377.096 148.826 376.69 149.33C376.27 149.848 376.074 150.534 376.074 151.388C376.074 152.284 376.27 152.97 376.676 153.474C377.082 153.978 377.656 154.216 378.384 154.216C379.084 154.216 379.63 153.964 380.022 153.46C380.414 152.956 380.624 152.27 380.624 151.374C380.624 150.52 380.414 149.834 380.008 149.33C379.602 148.826 379.056 148.574 378.356 148.574ZM388.621 149.876H387.431C387.347 149.008 386.759 148.56 385.667 148.56C385.205 148.56 384.841 148.658 384.589 148.826C384.323 149.008 384.197 149.246 384.197 149.54C384.197 149.624 384.197 149.708 384.225 149.792C384.239 149.876 384.267 149.946 384.323 150.002C384.379 150.058 384.421 150.114 384.463 150.156C384.505 150.212 384.575 150.254 384.673 150.296C384.771 150.338 384.841 150.366 384.897 150.394C384.953 150.422 385.037 150.464 385.177 150.492C385.317 150.52 385.415 150.548 385.471 150.562C385.527 150.576 385.625 150.604 385.793 150.632C385.961 150.674 386.059 150.702 386.115 150.702C386.451 150.786 386.717 150.842 386.885 150.884C387.053 150.94 387.291 151.024 387.599 151.15C387.907 151.276 388.131 151.402 388.299 151.542C388.453 151.682 388.593 151.864 388.719 152.102C388.845 152.34 388.915 152.606 388.915 152.9C388.915 153.6 388.635 154.174 388.089 154.594C387.543 155.014 386.815 155.224 385.919 155.224C384.939 155.224 384.183 155.014 383.651 154.58C383.119 154.16 382.839 153.53 382.811 152.718H383.987C384.043 153.74 384.701 154.244 385.947 154.244C386.479 154.244 386.899 154.146 387.221 153.922C387.543 153.698 387.711 153.404 387.711 153.04C387.711 152.802 387.627 152.606 387.459 152.438C387.291 152.284 387.095 152.172 386.899 152.102C386.689 152.032 386.395 151.948 386.017 151.85C385.961 151.85 385.919 151.836 385.891 151.822C385.807 151.808 385.625 151.766 385.345 151.71C385.065 151.654 384.869 151.598 384.757 151.556C384.631 151.528 384.449 151.472 384.225 151.388C384.001 151.304 383.833 151.22 383.721 151.136C383.609 151.052 383.483 150.94 383.343 150.8C383.203 150.66 383.119 150.506 383.063 150.324C383.007 150.142 382.979 149.932 382.979 149.694C382.979 149.05 383.217 148.532 383.721 148.14C384.225 147.762 384.897 147.566 385.737 147.566C386.577 147.566 387.277 147.776 387.809 148.168C388.341 148.574 388.621 149.148 388.621 149.876ZM393.353 147.776V148.756H391.911V152.97C391.911 153.208 391.911 153.362 391.911 153.432C391.911 153.516 391.939 153.614 391.995 153.74C392.037 153.866 392.121 153.95 392.233 153.978C392.345 154.02 392.499 154.034 392.709 154.034C392.877 154.034 393.101 154.02 393.353 153.992V155.014C393.017 155.056 392.709 155.07 392.443 155.07C392.107 155.07 391.827 155.042 391.603 154.958C391.379 154.888 391.197 154.804 391.085 154.706C390.973 154.622 390.889 154.454 390.833 154.216C390.777 153.978 390.735 153.782 390.735 153.614C390.721 153.446 390.721 153.18 390.721 152.788V152.732V152.662V152.592V148.756H389.503V147.776H390.721V145.634H391.911V147.776H393.353Z" fill="#060C12"/>
</g>
<g filter="url(#filter4_dddd_286_2566)">
<rect x="28" y="228" width="128" height="122" rx="12" fill="#FBFBFB"/>
<rect x="28.5" y="228.5" width="127" height="121" rx="11.5" stroke="#B02E0C" stroke-opacity="0.04"/>
<path d="M55 277C55 256.565 71.5655 240 92 240C112.435 240 129 256.565 129 277C129 297.435 112.435 314 92 314C71.5655 314 55 297.435 55 277Z" fill="#475569" fill-opacity="0.04"/>
<path d="M92 240.5C112.158 240.5 128.5 256.842 128.5 277C128.5 297.158 112.158 313.5 92 313.5C71.8416 313.5 55.5 297.158 55.5 277C55.5 256.842 71.8416 240.5 92 240.5Z" stroke="#475569" stroke-opacity="0.04"/>
<path d="M97.8461 270.466V261.557C97.8461 260.574 97.0466 259.775 96.0642 259.775H77.0573C76.0749 259.775 75.2754 260.574 75.2754 261.557V280.564C75.2754 281.546 76.0749 282.346 77.0573 282.346H85.9668V273.436C85.9668 271.799 87.299 270.466 88.9366 270.466H97.8461ZM94.2823 261.557C95.2647 261.557 96.0642 262.356 96.0642 263.339C96.0642 264.321 95.2647 265.121 94.2823 265.121C93.2999 265.121 92.5004 264.321 92.5004 263.339C92.5004 262.356 93.2999 261.557 94.2823 261.557ZM78.8392 280.564C77.8568 280.564 77.0573 279.764 77.0573 278.782C77.0573 277.799 77.8568 277 78.8392 277C79.8216 277 80.6211 277.799 80.6211 278.782C80.6211 279.764 79.8216 280.564 78.8392 280.564ZM78.8392 265.121C77.8568 265.121 77.0573 264.321 77.0573 263.339C77.0573 262.356 77.8568 261.557 78.8392 261.557C79.8216 261.557 80.6211 262.356 80.6211 263.339C80.6211 264.321 79.8216 265.121 78.8392 265.121Z" fill="#B02E0C"/>
<path d="M90.719 291.255C91.047 291.255 91.3129 290.989 91.3129 290.661C91.3129 290.333 91.047 290.067 90.719 290.067C90.3909 290.067 90.125 290.333 90.125 290.661C90.125 290.989 90.3909 291.255 90.719 291.255Z" fill="#B02E0C"/>
<path d="M78.8381 279.376C79.1661 279.376 79.4321 279.11 79.4321 278.782C79.4321 278.454 79.1661 278.188 78.8381 278.188C78.5101 278.188 78.2441 278.454 78.2441 278.782C78.2441 279.11 78.5101 279.376 78.8381 279.376Z" fill="#B02E0C"/>
<path d="M78.8381 263.933C79.1661 263.933 79.4321 263.667 79.4321 263.339C79.4321 263.011 79.1661 262.745 78.8381 262.745C78.5101 262.745 78.2441 263.011 78.2441 263.339C78.2441 263.667 78.5101 263.933 78.8381 263.933Z" fill="#B02E0C"/>
<path d="M90.719 275.812C91.047 275.812 91.3129 275.546 91.3129 275.218C91.3129 274.89 91.047 274.624 90.719 274.624C90.3909 274.624 90.125 274.89 90.125 275.218C90.125 275.546 90.3909 275.812 90.719 275.812Z" fill="#B02E0C"/>
<path d="M94.2815 263.933C94.6095 263.933 94.8754 263.667 94.8754 263.339C94.8754 263.011 94.6095 262.745 94.2815 262.745C93.9534 262.745 93.6875 263.011 93.6875 263.339C93.6875 263.667 93.9534 263.933 94.2815 263.933Z" fill="#B02E0C"/>
<path d="M106.16 291.255C106.488 291.255 106.754 290.989 106.754 290.661C106.754 290.333 106.488 290.067 106.16 290.067C105.832 290.067 105.566 290.333 105.566 290.661C105.566 290.989 105.832 291.255 106.16 291.255Z" fill="#B02E0C"/>
<path d="M106.16 275.812C106.488 275.812 106.754 275.546 106.754 275.218C106.754 274.89 106.488 274.624 106.16 274.624C105.832 274.624 105.566 274.89 105.566 275.218C105.566 275.546 105.832 275.812 106.16 275.812Z" fill="#B02E0C"/>
<path d="M107.943 271.654H88.9362C87.9538 271.654 87.1543 272.454 87.1543 273.436V292.443C87.1543 293.426 87.9538 294.225 88.9362 294.225H107.943C108.926 294.225 109.725 293.426 109.725 292.443V273.436C109.725 272.454 108.926 271.654 107.943 271.654ZM90.7181 292.443C89.7357 292.443 88.9362 291.644 88.9362 290.661C88.9362 289.679 89.7357 288.879 90.7181 288.879C91.7005 288.879 92.5 289.679 92.5 290.661C92.5 291.644 91.7005 292.443 90.7181 292.443ZM90.7181 277C89.7357 277 88.9362 276.201 88.9362 275.218C88.9362 274.236 89.7357 273.436 90.7181 273.436C91.7005 273.436 92.5 274.236 92.5 275.218C92.5 276.201 91.7005 277 90.7181 277ZM106.161 292.443C105.179 292.443 104.379 291.644 104.379 290.661C104.379 289.679 105.179 288.879 106.161 288.879C107.144 288.879 107.943 289.679 107.943 290.661C107.943 291.644 107.144 292.443 106.161 292.443ZM106.161 277C105.179 277 104.379 276.201 104.379 275.218C104.379 274.236 105.179 273.436 106.161 273.436C107.144 273.436 107.943 274.236 107.943 275.218C107.943 276.201 107.144 277 106.161 277Z" fill="#B02E0C"/>
<path d="M50.7587 330.958L49.4707 330.972C49.3307 329.614 48.5047 328.942 46.9927 328.942C46.2787 328.942 45.7187 329.082 45.3267 329.376C44.9347 329.656 44.7387 330.062 44.7387 330.594C44.7387 330.776 44.7667 330.944 44.8227 331.084C44.8787 331.224 44.9767 331.336 45.1167 331.448C45.2567 331.56 45.3827 331.644 45.4947 331.728C45.6207 331.798 45.8167 331.868 46.0687 331.938C46.3347 332.022 46.5447 332.078 46.6987 332.106C46.8667 332.134 47.1047 332.19 47.4407 332.26C47.8607 332.344 48.1967 332.428 48.4627 332.498C48.7427 332.568 49.0647 332.68 49.4287 332.834C49.8067 333.002 50.1007 333.17 50.3247 333.366C50.5487 333.562 50.7307 333.814 50.8987 334.122C51.0667 334.444 51.1367 334.808 51.1367 335.2C51.1367 335.9 50.9407 336.488 50.5487 336.964C50.1567 337.44 49.6807 337.762 49.1207 337.944C48.5607 338.14 47.9447 338.224 47.2587 338.224C46.0127 338.224 45.0187 337.93 44.2627 337.342C43.5067 336.754 43.1287 335.872 43.1287 334.71H44.4027C44.4307 335.564 44.7247 336.18 45.2567 336.572C45.8027 336.964 46.5027 337.16 47.3707 337.16C48.0567 337.16 48.6447 337.006 49.1347 336.726C49.6107 336.446 49.8627 335.984 49.8627 335.34C49.8627 335.032 49.7927 334.78 49.6667 334.57C49.5267 334.36 49.3307 334.192 49.0507 334.052C48.7707 333.912 48.4907 333.814 48.2107 333.73C47.9307 333.646 47.5527 333.548 47.1047 333.45C47.0347 333.436 46.9927 333.422 46.9647 333.408C45.9287 333.184 45.2567 332.988 44.9487 332.848C43.9687 332.428 43.4927 331.714 43.4927 330.678C43.4927 329.726 43.8427 329.026 44.5427 328.55C45.2427 328.074 46.0967 327.836 47.0907 327.836C48.1827 327.836 49.0647 328.102 49.7087 328.62C50.3667 329.152 50.7167 329.922 50.7587 330.958ZM55.6648 330.776V331.756H54.2228V335.97C54.2228 336.208 54.2228 336.362 54.2228 336.432C54.2228 336.516 54.2508 336.614 54.3068 336.74C54.3488 336.866 54.4328 336.95 54.5448 336.978C54.6568 337.02 54.8108 337.034 55.0208 337.034C55.1888 337.034 55.4128 337.02 55.6648 336.992V338.014C55.3288 338.056 55.0208 338.07 54.7548 338.07C54.4188 338.07 54.1388 338.042 53.9148 337.958C53.6908 337.888 53.5088 337.804 53.3968 337.706C53.2848 337.622 53.2008 337.454 53.1448 337.216C53.0888 336.978 53.0468 336.782 53.0468 336.614C53.0328 336.446 53.0328 336.18 53.0328 335.788V335.732V335.662V335.592V331.756H51.8148V330.776H53.0328V328.634H54.2228V330.776H55.6648ZM63.1608 335.718C62.7968 337.398 61.7468 338.238 60.0108 338.238C58.9468 338.238 58.1068 337.916 57.5048 337.244C56.9028 336.586 56.6088 335.662 56.6088 334.486C56.6088 333.324 56.9168 332.386 57.5328 331.658C58.1488 330.93 58.9608 330.566 59.9688 330.566C61.0748 330.566 61.9008 330.944 62.4328 331.7C62.9648 332.456 63.2448 333.394 63.2448 334.542V334.71H57.8128L57.7988 334.794C57.7988 335.564 57.9948 336.166 58.4008 336.6C58.7928 337.048 59.3528 337.258 60.0528 337.258C60.5708 337.258 60.9768 337.146 61.2848 336.894C61.5928 336.656 61.8308 336.264 61.9988 335.718H63.1608ZM62.0128 333.744C61.9568 333.058 61.7468 332.526 61.3828 332.134C61.0188 331.742 60.5288 331.546 59.9408 331.546C59.3528 331.546 58.8768 331.742 58.4988 332.134C58.1068 332.526 57.8828 333.072 57.8128 333.744H62.0128ZM70.6804 335.718C70.3164 337.398 69.2664 338.238 67.5304 338.238C66.4664 338.238 65.6264 337.916 65.0244 337.244C64.4224 336.586 64.1284 335.662 64.1284 334.486C64.1284 333.324 64.4364 332.386 65.0524 331.658C65.6684 330.93 66.4804 330.566 67.4884 330.566C68.5944 330.566 69.4204 330.944 69.9524 331.7C70.4844 332.456 70.7644 333.394 70.7644 334.542V334.71H65.3324L65.3184 334.794C65.3184 335.564 65.5144 336.166 65.9204 336.6C66.3124 337.048 66.8724 337.258 67.5724 337.258C68.0904 337.258 68.4964 337.146 68.8044 336.894C69.1124 336.656 69.3504 336.264 69.5184 335.718H70.6804ZM69.5324 333.744C69.4764 333.058 69.2664 332.526 68.9024 332.134C68.5384 331.742 68.0484 331.546 67.4604 331.546C66.8724 331.546 66.3964 331.742 66.0184 332.134C65.6264 332.526 65.4024 333.072 65.3324 333.744H69.5324ZM73.2859 328.032V338H72.0819V328.032H73.2859ZM88.0559 338.028L87.3699 338.854L85.8579 337.636C85.1579 338.042 84.3459 338.238 83.4219 338.238C81.9239 338.238 80.7619 337.734 79.9219 336.726C79.0819 335.718 78.6759 334.444 78.6759 332.904C78.6759 331.364 79.1099 330.132 79.9779 329.208C80.8459 328.284 81.9939 327.808 83.4499 327.808C84.9199 327.808 86.0819 328.27 86.9359 329.194C87.7899 330.118 88.2239 331.378 88.2239 332.988C88.2239 334.71 87.7199 336.04 86.7399 336.978L88.0559 338.028ZM84.4439 335.144L85.7599 336.222C86.5159 335.466 86.9079 334.388 86.9079 333.002C86.9079 331.784 86.5859 330.804 85.9699 330.062C85.3399 329.32 84.5139 328.942 83.4779 328.942C82.3579 328.942 81.5039 329.334 80.9019 330.104C80.2859 330.874 79.9919 331.826 79.9919 332.96C79.9919 334.15 80.2859 335.144 80.8739 335.928C81.4619 336.726 82.3439 337.118 83.5059 337.118C84.0379 337.118 84.4859 337.034 84.8639 336.838L83.7439 335.956L84.4439 335.144ZM95.6546 330.776L95.6406 338H94.5346V336.866C93.9186 337.762 93.0926 338.196 92.0426 338.196C91.2866 338.196 90.6846 337.986 90.2646 337.566C89.8446 337.146 89.6346 336.544 89.6346 335.746V330.776H90.8246V335.424C90.8246 335.998 90.9366 336.432 91.1606 336.726C91.3846 337.02 91.7766 337.16 92.3506 337.16C93.7506 337.16 94.4646 336.292 94.4646 334.556V330.776H95.6546ZM103.84 337.048V337.986C103.588 338.07 103.322 338.126 103.028 338.126C102.342 338.126 101.992 337.762 101.978 337.062C101.292 337.818 100.424 338.21 99.3599 338.21C98.6459 338.21 98.0859 338.028 97.6659 337.664C97.2459 337.3 97.0499 336.796 97.0499 336.166C97.0499 334.878 97.9039 334.122 99.6119 333.912C99.7239 333.884 99.8779 333.87 100.102 333.856C100.914 333.758 101.404 333.646 101.6 333.534C101.81 333.38 101.922 333.128 101.922 332.764C101.922 331.966 101.376 331.574 100.284 331.574C99.7239 331.574 99.2899 331.686 99.0099 331.91C98.7159 332.134 98.5479 332.512 98.4919 333.044H97.3299C97.3439 332.26 97.6239 331.658 98.1559 331.238C98.6879 330.804 99.4159 330.594 100.354 330.594C101.362 330.594 102.118 330.818 102.622 331.294C102.776 331.434 102.888 331.63 102.972 331.882C103.042 332.12 103.084 332.316 103.098 332.47C103.098 332.624 103.112 332.862 103.112 333.17C103.112 333.52 103.098 334.052 103.084 334.766C103.056 335.494 103.056 336.026 103.056 336.376C103.056 336.642 103.084 336.824 103.154 336.936C103.224 337.048 103.35 337.09 103.546 337.09C103.616 337.09 103.714 337.076 103.84 337.048ZM101.922 334.262C101.838 334.318 101.74 334.374 101.656 334.43C101.558 334.472 101.432 334.514 101.292 334.542C101.152 334.57 101.054 334.584 100.998 334.598C100.942 334.612 100.83 334.626 100.634 334.654C100.438 334.682 100.326 334.696 100.326 334.696C100.032 334.724 99.8359 334.752 99.7519 334.766C99.6679 334.78 99.4999 334.822 99.2479 334.892C98.9959 334.948 98.8279 335.032 98.7299 335.116C98.6179 335.2 98.5199 335.312 98.4219 335.48C98.3239 335.648 98.2819 335.844 98.2819 336.068C98.2819 336.432 98.4079 336.726 98.6599 336.95C98.9119 337.16 99.2759 337.272 99.7239 337.272C100.284 337.272 100.802 337.104 101.25 336.768C101.698 336.432 101.922 336.026 101.922 335.578V334.262ZM106.081 330.776V331.896C106.669 331.028 107.495 330.58 108.545 330.58C109.385 330.58 110.001 330.804 110.379 331.252C110.757 331.7 110.953 332.344 110.953 333.198V338H109.763V333.744C109.763 333.394 109.749 333.114 109.721 332.918C109.693 332.722 109.637 332.498 109.553 332.274C109.455 332.05 109.301 331.882 109.077 331.77C108.853 331.672 108.559 331.616 108.209 331.616C106.837 331.616 106.151 332.484 106.151 334.22V338H104.961V330.776H106.081ZM115.835 330.776V331.756H114.393V335.97C114.393 336.208 114.393 336.362 114.393 336.432C114.393 336.516 114.421 336.614 114.477 336.74C114.519 336.866 114.603 336.95 114.715 336.978C114.827 337.02 114.981 337.034 115.191 337.034C115.359 337.034 115.583 337.02 115.835 336.992V338.014C115.499 338.056 115.191 338.07 114.925 338.07C114.589 338.07 114.309 338.042 114.085 337.958C113.861 337.888 113.679 337.804 113.567 337.706C113.455 337.622 113.371 337.454 113.315 337.216C113.259 336.978 113.217 336.782 113.217 336.614C113.203 336.446 113.203 336.18 113.203 335.788V335.732V335.662V335.592V331.756H111.985V330.776H113.203V328.634H114.393V330.776H115.835ZM118.417 328.032V329.488H117.213V328.032H118.417ZM118.417 330.776V338H117.213V330.776H118.417ZM123.354 330.776V331.756H121.912V335.97C121.912 336.208 121.912 336.362 121.912 336.432C121.912 336.516 121.94 336.614 121.996 336.74C122.038 336.866 122.122 336.95 122.234 336.978C122.346 337.02 122.5 337.034 122.71 337.034C122.878 337.034 123.102 337.02 123.354 336.992V338.014C123.018 338.056 122.71 338.07 122.444 338.07C122.108 338.07 121.828 338.042 121.604 337.958C121.38 337.888 121.198 337.804 121.086 337.706C120.974 337.622 120.89 337.454 120.834 337.216C120.778 336.978 120.736 336.782 120.736 336.614C120.722 336.446 120.722 336.18 120.722 335.788V335.732V335.662V335.592V331.756H119.504V330.776H120.722V328.634H121.912V330.776H123.354ZM125.936 328.032V329.488H124.732V328.032H125.936ZM125.936 330.776V338H124.732V330.776H125.936ZM133.954 335.718C133.59 337.398 132.54 338.238 130.804 338.238C129.74 338.238 128.9 337.916 128.298 337.244C127.696 336.586 127.402 335.662 127.402 334.486C127.402 333.324 127.71 332.386 128.326 331.658C128.942 330.93 129.754 330.566 130.762 330.566C131.868 330.566 132.694 330.944 133.226 331.7C133.758 332.456 134.038 333.394 134.038 334.542V334.71H128.606L128.592 334.794C128.592 335.564 128.788 336.166 129.194 336.6C129.586 337.048 130.146 337.258 130.846 337.258C131.364 337.258 131.77 337.146 132.078 336.894C132.386 336.656 132.624 336.264 132.792 335.718H133.954ZM132.806 333.744C132.75 333.058 132.54 332.526 132.176 332.134C131.812 331.742 131.322 331.546 130.734 331.546C130.146 331.546 129.67 331.742 129.292 332.134C128.9 332.526 128.676 333.072 128.606 333.744H132.806ZM140.661 332.876H139.471C139.387 332.008 138.799 331.56 137.707 331.56C137.245 331.56 136.881 331.658 136.629 331.826C136.363 332.008 136.237 332.246 136.237 332.54C136.237 332.624 136.237 332.708 136.265 332.792C136.279 332.876 136.307 332.946 136.363 333.002C136.419 333.058 136.461 333.114 136.503 333.156C136.545 333.212 136.615 333.254 136.713 333.296C136.811 333.338 136.881 333.366 136.937 333.394C136.993 333.422 137.077 333.464 137.217 333.492C137.357 333.52 137.455 333.548 137.511 333.562C137.567 333.576 137.665 333.604 137.833 333.632C138.001 333.674 138.099 333.702 138.155 333.702C138.491 333.786 138.757 333.842 138.925 333.884C139.093 333.94 139.331 334.024 139.639 334.15C139.947 334.276 140.171 334.402 140.339 334.542C140.493 334.682 140.633 334.864 140.759 335.102C140.885 335.34 140.955 335.606 140.955 335.9C140.955 336.6 140.675 337.174 140.129 337.594C139.583 338.014 138.855 338.224 137.959 338.224C136.979 338.224 136.223 338.014 135.691 337.58C135.159 337.16 134.879 336.53 134.851 335.718H136.027C136.083 336.74 136.741 337.244 137.987 337.244C138.519 337.244 138.939 337.146 139.261 336.922C139.583 336.698 139.751 336.404 139.751 336.04C139.751 335.802 139.667 335.606 139.499 335.438C139.331 335.284 139.135 335.172 138.939 335.102C138.729 335.032 138.435 334.948 138.057 334.85C138.001 334.85 137.959 334.836 137.931 334.822C137.847 334.808 137.665 334.766 137.385 334.71C137.105 334.654 136.909 334.598 136.797 334.556C136.671 334.528 136.489 334.472 136.265 334.388C136.041 334.304 135.873 334.22 135.761 334.136C135.649 334.052 135.523 333.94 135.383 333.8C135.243 333.66 135.159 333.506 135.103 333.324C135.047 333.142 135.019 332.932 135.019 332.694C135.019 332.05 135.257 331.532 135.761 331.14C136.265 330.762 136.937 330.566 137.777 330.566C138.617 330.566 139.317 330.776 139.849 331.168C140.381 331.574 140.661 332.148 140.661 332.876Z" fill="#060C12"/>
</g>
</g>
<defs>
<filter id="filter0_f_286_2566" x="111.199" y="101.024" width="247.402" height="47.9627" filterUnits="userSpaceOnUse" color-interpolation-filters="sRGB">
<feFlood flood-opacity="0" result="BackgroundImageFix"/>
<feBlend mode="normal" in="SourceGraphic" in2="BackgroundImageFix" result="shape"/>
<feGaussianBlur stdDeviation="11.0683" result="effect1_foregroundBlur_286_2566"/>
</filter>
<filter id="filter1_f_286_2566" x="111.199" y="197.345" width="247.402" height="47.9627" filterUnits="userSpaceOnUse" color-interpolation-filters="sRGB">
<feFlood flood-opacity="0" result="BackgroundImageFix"/>
<feBlend mode="normal" in="SourceGraphic" in2="BackgroundImageFix" result="shape"/>
<feGaussianBlur stdDeviation="11.0683" result="effect1_foregroundBlur_286_2566"/>
</filter>
<filter id="filter2_f_286_2566" x="111.199" y="293.666" width="247.402" height="47.9627" filterUnits="userSpaceOnUse" color-interpolation-filters="sRGB">
<feFlood flood-opacity="0" result="BackgroundImageFix"/>
<feBlend mode="normal" in="SourceGraphic" in2="BackgroundImageFix" result="shape"/>
<feGaussianBlur stdDeviation="11.0683" result="effect1_foregroundBlur_286_2566"/>
</filter>
<filter id="filter3_dddd_286_2566" x="311" y="25" width="145" height="170" filterUnits="userSpaceOnUse" color-interpolation-filters="sRGB">
<feFlood flood-opacity="0" result="BackgroundImageFix"/>
<feColorMatrix in="SourceAlpha" type="matrix" values="0 0 0 0 0 0 0 0 0 0 0 0 0 0 0 0 0 0 127 0" result="hardAlpha"/>
<feOffset dy="1"/>
<feGaussianBlur stdDeviation="1.5"/>
<feColorMatrix type="matrix" values="0 0 0 0 0.635294 0 0 0 0 0.639216 0 0 0 0 0.662745 0 0 0 0.1 0"/>
<feBlend mode="normal" in2="BackgroundImageFix" result="effect1_dropShadow_286_2566"/>
<feColorMatrix in="SourceAlpha" type="matrix" values="0 0 0 0 0 0 0 0 0 0 0 0 0 0 0 0 0 0 127 0" result="hardAlpha"/>
<feOffset dx="1" dy="5"/>
<feGaussianBlur stdDeviation="2.5"/>
<feColorMatrix type="matrix" values="0 0 0 0 0.635294 0 0 0 0 0.639216 0 0 0 0 0.662745 0 0 0 0.09 0"/>
<feBlend mode="normal" in2="effect1_dropShadow_286_2566" result="effect2_dropShadow_286_2566"/>
<feColorMatrix in="SourceAlpha" type="matrix" values="0 0 0 0 0 0 0 0 0 0 0 0 0 0 0 0 0 0 127 0" result="hardAlpha"/>
<feOffset dx="3" dy="11"/>
<feGaussianBlur stdDeviation="3.5"/>
<feColorMatrix type="matrix" values="0 0 0 0 0.635294 0 0 0 0 0.639216 0 0 0 0 0.662745 0 0 0 0.05 0"/>
<feBlend mode="normal" in2="effect2_dropShadow_286_2566" result="effect3_dropShadow_286_2566"/>
<feColorMatrix in="SourceAlpha" type="matrix" values="0 0 0 0 0 0 0 0 0 0 0 0 0 0 0 0 0 0 127 0" result="hardAlpha"/>
<feOffset dx="5" dy="20"/>
<feGaussianBlur stdDeviation="4"/>
<feColorMatrix type="matrix" values="0 0 0 0 0.635294 0 0 0 0 0.639216 0 0 0 0 0.662745 0 0 0 0.01 0"/>
<feBlend mode="normal" in2="effect3_dropShadow_286_2566" result="effect4_dropShadow_286_2566"/>
<feBlend mode="normal" in="SourceGraphic" in2="effect4_dropShadow_286_2566" result="shape"/>
</filter>
<filter id="filter4_dddd_286_2566" x="14" y="227" width="148" height="157" filterUnits="userSpaceOnUse" color-interpolation-filters="sRGB">
<feFlood flood-opacity="0" result="BackgroundImageFix"/>
<feColorMatrix in="SourceAlpha" type="matrix" values="0 0 0 0 0 0 0 0 0 0 0 0 0 0 0 0 0 0 127 0" result="hardAlpha"/>
<feOffset dy="2"/>
<feGaussianBlur stdDeviation="1.5"/>
<feColorMatrix type="matrix" values="0 0 0 0 0.580392 0 0 0 0 0.537255 0 0 0 0 0.537255 0 0 0 0.1 0"/>
<feBlend mode="normal" in2="BackgroundImageFix" result="effect1_dropShadow_286_2566"/>
<feColorMatrix in="SourceAlpha" type="matrix" values="0 0 0 0 0 0 0 0 0 0 0 0 0 0 0 0 0 0 127 0" result="hardAlpha"/>
<feOffset dx="-1" dy="6"/>
<feGaussianBlur stdDeviation="3"/>
<feColorMatrix type="matrix" values="0 0 0 0 0.580392 0 0 0 0 0.537255 0 0 0 0 0.537255 0 0 0 0.09 0"/>
<feBlend mode="normal" in2="effect1_dropShadow_286_2566" result="effect2_dropShadow_286_2566"/>
<feColorMatrix in="SourceAlpha" type="matrix" values="0 0 0 0 0 0 0 0 0 0 0 0 0 0 0 0 0 0 127 0" result="hardAlpha"/>
<feOffset dx="-2" dy="14"/>
<feGaussianBlur stdDeviation="4"/>
<feColorMatrix type="matrix" values="0 0 0 0 0.580392 0 0 0 0 0.537255 0 0 0 0 0.537255 0 0 0 0.05 0"/>
<feBlend mode="normal" in2="effect2_dropShadow_286_2566" result="effect3_dropShadow_286_2566"/>
<feColorMatrix in="SourceAlpha" type="matrix" values="0 0 0 0 0 0 0 0 0 0 0 0 0 0 0 0 0 0 127 0" result="hardAlpha"/>
<feOffset dx="-4" dy="24"/>
<feGaussianBlur stdDeviation="5"/>
<feColorMatrix type="matrix" values="0 0 0 0 0.580392 0 0 0 0 0.537255 0 0 0 0 0.537255 0 0 0 0.01 0"/>
<feBlend mode="normal" in2="effect3_dropShadow_286_2566" result="effect4_dropShadow_286_2566"/>
<feBlend mode="normal" in="SourceGraphic" in2="effect4_dropShadow_286_2566" result="shape"/>
</filter>
<clipPath id="clip0_286_2566">
<rect width="469" height="376" fill="white"/>
</clipPath>
<clipPath id="clip1_286_2566">
<rect x="71.7031" y="36.3716" width="325.593" height="305.257" rx="16.6025" fill="white"/>
</clipPath>
</defs>
</svg>
