<svg width="38" height="34" viewBox="0 0 38 34" fill="none" xmlns="http://www.w3.org/2000/svg">
<path d="M21.5527 10.7171V15.4284C21.5527 15.6979 21.7712 15.9164 22.0408 15.9164H26.3277C28.0309 16.0165 28.6935 19.617 27.1543 20.6437C26.9869 20.7554 26.8582 20.93 26.8582 21.1313V29.2333C26.8582 29.6739 27.3958 29.8889 27.6996 29.5699L33.2248 23.7685C36.5354 20.6277 37.1508 18.9935 37.2569 17.6142V14.9613C37.2569 12.839 35.3469 9.76208 32.0576 9.76208H22.4016C21.7225 9.76208 21.5527 10.3987 21.5527 10.7171Z" fill="#B02E0C" stroke="#B02E0C" stroke-width="0.212219"/>
<path d="M10.0953 20.1217V12.0625C10.0953 11.6194 9.5524 11.4056 9.2503 11.7298L1.44115 20.1097C1.40965 20.1435 1.38308 20.1809 1.35513 20.2177C1.11034 20.54 -0.0377598 21.7795 0.120355 25.8905C0.29013 30.3047 2.8792 32.0449 4.78916 32.0449H14.4883C14.7579 32.0449 14.9764 31.8264 14.9764 31.5568V29.9863C14.9764 29.7167 14.7579 29.4982 14.4883 29.4982H9.88241C5.8927 29.0738 4.82453 26.0674 4.78916 24.6172V22.983C4.78916 22.7135 4.57067 22.495 4.30114 22.495H3.80443C3.41198 22.495 3.18005 22.0553 3.40166 21.7314L5.21896 19.0754C5.4171 18.7858 5.84697 18.7937 6.03434 19.0903L7.71185 21.7464C7.91709 22.0714 7.68358 22.495 7.29923 22.495H6.8112C6.56556 22.495 6.35636 22.6786 6.33757 22.9235C6.05601 26.5949 8.45909 28.0205 10.0953 28.2249H14.4883C14.7579 28.2249 14.9764 28.0064 14.9764 27.7369V26.1663C14.9764 25.8968 14.7579 25.6783 14.4883 25.6783H10.2105C10.1348 25.6783 10.0592 25.6614 9.99346 25.6237C9.24647 25.1954 9.24647 24.5317 9.24647 24.1928V21.8584C9.3131 21.2587 9.64562 20.7941 9.90529 20.5365C10.0172 20.4255 10.0953 20.2793 10.0953 20.1217Z" fill="#B02E0C" stroke="#B02E0C" stroke-width="0.212219"/>
<path d="M11.582 6.30297V1.07548C11.582 0.656197 12.0759 0.432109 12.3914 0.708212L14.8109 2.82524C14.9168 2.9179 14.9775 3.05178 14.9775 3.19251V6.30297C14.9775 6.5725 14.759 6.79099 14.4895 6.79099H12.0701C11.8005 6.79099 11.582 6.5725 11.582 6.30297Z" fill="#060C12" stroke="#060C12" stroke-width="0.212219"/>
<path d="M16.4609 10.9719V5.06633C16.4609 4.6539 16.9408 4.42743 17.2592 4.68962L19.8909 6.85688C20.0034 6.94958 20.0687 7.08777 20.0687 7.2336V10.9719C20.0687 11.2414 19.8502 11.4599 19.5806 11.4599H16.949C16.6794 11.4599 16.4609 11.2414 16.4609 10.9719Z" fill="#060C12" stroke="#060C12" stroke-width="0.212219"/>
<path d="M11.582 11.1839V8.55223C11.582 8.2827 11.8005 8.06421 12.0701 8.06421H14.7017C14.9713 8.06421 15.1897 8.2827 15.1897 8.55223V11.1839C15.1897 11.4534 14.9713 11.6719 14.7017 11.6719H12.0701C11.8005 11.6719 11.582 11.4534 11.582 11.1839Z" fill="#060C12" stroke="#060C12" stroke-width="0.212219"/>
<path d="M11.582 15.7465V13.1149C11.582 12.8453 11.8005 12.6268 12.0701 12.6268H14.7017C14.9713 12.6268 15.1897 12.8453 15.1897 13.1149V15.7465C15.1897 16.0161 14.9713 16.2345 14.7017 16.2345H12.0701C11.8005 16.2345 11.582 16.0161 11.582 15.7465Z" fill="#060C12" stroke="#060C12" stroke-width="0.212219"/>
<path d="M16.5684 18.2933V12.627C16.5684 12.5098 16.6634 12.4148 16.7806 12.4148C18.6559 12.4148 20.1761 13.935 20.1761 15.8103V18.4068C20.1761 18.6137 20.0084 18.7814 19.8016 18.7814H17.0564C16.7869 18.7814 16.5684 18.5629 16.5684 18.2933Z" fill="#060C12" stroke="#060C12" stroke-width="0.212219"/>
<path d="M16.5684 22.7499V20.1183C16.5684 19.8487 16.7869 19.6302 17.0564 19.6302H19.6881C19.9576 19.6302 20.1761 19.8487 20.1761 20.1183V22.7499C20.1761 23.0195 19.9576 23.238 19.6881 23.238H17.0564C16.7869 23.238 16.5684 23.0195 16.5684 22.7499Z" fill="#060C12" stroke="#060C12" stroke-width="0.212219"/>
<path d="M16.5684 27.631V26.0604C16.5684 25.7909 16.7869 25.5724 17.0564 25.5724H19.6881C19.9576 25.5724 20.1761 25.7909 20.1761 26.0604V27.631C20.1761 27.9005 19.9576 28.119 19.6881 28.119H17.0564C16.7869 28.119 16.5684 27.9005 16.5684 27.631Z" fill="#060C12" stroke="#060C12" stroke-width="0.212219"/>
<path d="M16.5684 32.5121V29.6682C16.5684 29.3987 16.7869 29.1802 17.0564 29.1802H19.6881C19.9576 29.1802 20.1761 29.3987 20.1761 29.6682V32.5121C20.1761 32.7816 19.9576 33.0001 19.6881 33.0001H17.0564C16.7869 33.0001 16.5684 32.7816 16.5684 32.5121Z" fill="#060C12" stroke="#060C12" stroke-width="0.212219"/>
<path d="M21.4473 32.5118V29.2435C21.4473 28.974 21.6658 28.7555 21.9353 28.7555H24.567C24.8365 28.7555 25.055 28.974 25.055 29.2435V32.5118C25.055 32.7814 24.8365 32.9999 24.567 32.9999H21.9353C21.6658 32.9999 21.4473 32.7814 21.4473 32.5118Z" fill="#060C12" stroke="#060C12" stroke-width="0.212219"/>
<path d="M21.4473 27.6308V19.057C21.4473 18.7875 21.6658 18.569 21.9353 18.569H24.567C24.8365 18.569 25.055 18.7875 25.055 19.057V27.6308C25.055 27.9003 24.8365 28.1188 24.567 28.1188H21.9353C21.6658 28.1188 21.4473 27.9003 21.4473 27.6308Z" fill="#060C12" stroke="#060C12" stroke-width="0.212219"/>
<path d="M11.582 22.7498V17.7837C11.582 17.5141 11.8005 17.2957 12.0701 17.2957H14.7017C14.9713 17.2957 15.1897 17.5141 15.1897 17.7837V22.7498C15.1897 23.0193 14.9713 23.2378 14.7017 23.2378H12.0701C11.8005 23.2378 11.582 23.0193 11.582 22.7498Z" fill="#060C12" stroke="#060C12" stroke-width="0.212219"/>
</svg>
