<svg width="80" height="80" viewBox="0 0 80 80" fill="none" xmlns="http://www.w3.org/2000/svg">
<circle cx="40" cy="40" r="40" fill="#B02E0C"/>
<g clip-path="url(#clip0_286_1918)">
<path d="M30.5993 45.7571C30.5993 45.2936 30.2238 44.9182 29.7603 44.9182H25.5655C25.102 44.9182 24.7266 45.2936 24.7266 45.7571V52.5247C24.7266 52.9882 25.102 53.3636 25.5655 53.3636H29.7603C30.2238 53.3636 30.5993 52.9882 30.5993 52.5247V45.7571ZM37.3668 39.8844H33.172C32.7085 39.8844 32.3331 40.2598 32.3331 40.7234V52.5247C32.3331 52.9882 32.7085 53.3636 33.172 53.3636H37.3668C37.8304 53.3636 38.2058 52.9882 38.2058 52.5247V40.7234C38.2058 40.2598 37.8304 39.8844 37.3668 39.8844ZM44.9174 38.2065H40.7226C40.2591 38.2065 39.8837 38.5819 39.8837 39.0455V52.5247C39.8837 52.9882 40.2591 53.3636 40.7226 53.3636H44.9174C45.381 53.3636 45.7564 52.9882 45.7564 52.5247V39.0455C45.7564 38.5819 45.381 38.2065 44.9174 38.2065ZM52.524 31.4949H48.3292C47.8656 31.4949 47.4902 31.8703 47.4902 32.3338V52.5247C47.4902 52.9882 47.8656 53.3636 48.3292 53.3636H52.524C52.9875 53.3636 53.3629 52.9882 53.3629 52.5247V32.3338C53.3629 31.8703 52.9875 31.4949 52.524 31.4949Z" fill="white"/>
<path d="M27.718 43.1843C29.1058 43.1843 30.2349 42.0552 30.2349 40.6675C30.2349 40.4316 30.192 40.2081 30.1311 39.9917L33.3998 37.6843C33.8102 37.9756 34.3087 38.1506 34.8492 38.1506C36.1224 38.1506 37.1666 37.1969 37.3321 35.9683L40.6792 35.2635C41.1223 35.9857 41.9119 36.4727 42.8192 36.4727C44.207 36.4727 45.3361 35.3436 45.3361 33.9558C45.3361 33.6202 45.2672 33.3011 45.1477 33.0081L49.163 29.4391C49.523 29.6378 49.9303 29.761 50.3698 29.761C51.7576 29.761 52.8867 28.632 52.8867 27.2442C52.8867 25.8564 51.7576 24.7273 50.3698 24.7273C48.982 24.7273 47.853 25.8564 47.853 27.2442C47.853 27.5797 47.9219 27.8989 48.0413 28.1918L44.0261 31.7609C43.666 31.5622 43.2588 31.4389 42.8192 31.4389C41.5459 31.4389 40.5018 32.3926 40.3363 33.6213L36.9892 34.326C36.5461 33.6038 35.7565 33.1169 34.8492 33.1169C33.4614 33.1169 32.3323 34.2459 32.3323 35.6337C32.3323 35.8695 32.3752 36.0931 32.4361 36.3094L29.1674 38.6169C28.757 38.3255 28.2585 38.1506 27.718 38.1506C26.3302 38.1506 25.2012 39.2797 25.2012 40.6675C25.2012 42.0552 26.3302 43.1843 27.718 43.1843Z" fill="white"/>
</g>
<defs>
<clipPath id="clip0_286_1918">
<rect width="30.5455" height="30.5455" fill="white" transform="translate(24.7266 24.7273)"/>
</clipPath>
</defs>
</svg>
