<svg width="80" height="80" viewBox="0 0 80 80" fill="none" xmlns="http://www.w3.org/2000/svg">
<circle cx="40" cy="40" r="40" fill="#B02E0C"/>
<g clip-path="url(#clip0_286_1886)">
<path d="M44.4155 33.6762C43.2641 33.6762 42.3274 32.7395 42.3274 31.5881V24.7273H31.6484C29.8392 24.7273 28.3672 26.1993 28.3672 28.0085V51.9915C28.3672 53.8008 29.8392 55.2727 31.6484 55.2727H48.353C50.1623 55.2727 51.6342 53.8008 51.6342 51.9915V33.6762H44.4155ZM33.2592 46.2046H37.5976C38.0919 46.2046 38.4925 46.6052 38.4925 47.0995C38.4925 47.5937 38.0919 47.9943 37.5976 47.9943H33.2592C32.765 47.9943 32.3643 47.5937 32.3643 47.0995C32.3643 46.6052 32.765 46.2046 33.2592 46.2046ZM32.3643 42.3267C32.3643 41.8325 32.765 41.4318 33.2592 41.4318H46.3842C46.8785 41.4318 47.2791 41.8325 47.2791 42.3267C47.2791 42.8209 46.8785 43.2216 46.3842 43.2216H33.2592C32.765 43.2216 32.3643 42.8209 32.3643 42.3267ZM46.3842 36.6591C46.8785 36.6591 47.2791 37.0598 47.2791 37.554C47.2791 38.0482 46.8785 38.4489 46.3842 38.4489H33.2592C32.765 38.4489 32.3643 38.0482 32.3643 37.554C32.3643 37.0598 32.765 36.6591 33.2592 36.6591H46.3842Z" fill="white"/>
<path d="M44.1172 31.588C44.1172 31.7525 44.251 31.8863 44.4155 31.8863H51.2354C51.0709 31.5818 50.8591 31.3053 50.608 31.0671L44.8555 25.6249C44.6349 25.4161 44.3865 25.239 44.1172 25.0984V31.588H44.1172Z" fill="white"/>
</g>
<defs>
<clipPath id="clip0_286_1886">
<rect width="30.5455" height="30.5455" fill="white" transform="translate(24.7266 24.7273)"/>
</clipPath>
</defs>
</svg>
