<svg width="197" height="192" viewBox="0 0 197 192" fill="none" xmlns="http://www.w3.org/2000/svg">
<g filter="url(#filter0_dddd_286_1708)">
<path d="M5.09961 31.11C5.09961 21.1131 5.09961 16.1146 7.04514 12.2963C8.75648 8.93763 11.4872 6.20692 14.8459 4.49558C18.6642 2.55005 23.6627 2.55005 33.6596 2.55005H151.215C161.212 2.55005 166.21 2.55005 170.028 4.49558C173.387 6.20692 176.118 8.93763 177.829 12.2963C179.775 16.1146 179.775 21.1131 179.775 31.11V126.99C179.775 136.987 179.775 141.985 177.829 145.804C176.118 149.162 173.387 151.893 170.028 153.605C166.21 155.55 161.212 155.55 151.215 155.55H33.6596C23.6627 155.55 18.6642 155.55 14.8459 153.605C11.4872 151.893 8.75648 149.162 7.04514 145.804C5.09961 141.985 5.09961 136.987 5.09961 126.99V31.11Z" fill="#FBFBFB"/>
<path d="M33.6592 3.18774H151.215C156.224 3.18774 159.942 3.18838 162.887 3.42896C165.824 3.66893 167.935 4.1444 169.739 5.06372C172.978 6.71395 175.611 9.34755 177.261 12.5862C178.18 14.3904 178.657 16.5009 178.896 19.4377C179.137 22.3822 179.137 26.1008 179.137 31.1096V126.99C179.137 131.999 179.137 135.718 178.896 138.662C178.657 141.599 178.18 143.71 177.261 145.514C175.611 148.753 172.978 151.386 169.739 153.036C167.935 153.956 165.824 154.431 162.887 154.671C159.942 154.912 156.224 154.912 151.215 154.912H33.6592C28.6504 154.912 24.9318 154.912 21.9873 154.671C19.0506 154.431 16.9399 153.956 15.1357 153.036C11.897 151.386 9.2635 148.753 7.61328 145.514C6.69408 143.71 6.21848 141.599 5.97852 138.662C5.73794 135.718 5.7373 131.999 5.7373 126.99V31.1096C5.7373 26.1008 5.73794 22.3822 5.97852 19.4377C6.21848 16.501 6.69408 14.3903 7.61328 12.5862C9.2635 9.34744 11.897 6.71394 15.1357 5.06372C16.9399 4.14452 19.0506 3.66892 21.9873 3.42896C24.9318 3.18838 28.6504 3.18774 33.6592 3.18774Z" stroke="#B02E0C" stroke-opacity="0.04" stroke-width="1.275"/>
<circle cx="92.4355" cy="61.125" r="40" fill="#475569" fill-opacity="0.04"/>
<circle cx="92.4355" cy="61.125" r="39.1304" stroke="#475569" stroke-opacity="0.04" stroke-width="1.73913"/>
<path d="M101.166 68.9535C101.47 68.7161 101.746 68.44 102.298 67.888L109.18 61.0055C109.347 60.8391 109.271 60.5525 109.048 60.4754C108.236 60.1936 107.179 59.6644 106.191 58.6758C105.202 57.6873 104.673 56.6305 104.391 55.8181C104.314 55.5958 104.027 55.5196 103.861 55.686L96.9786 62.5685C96.4265 63.1205 96.1505 63.3966 95.9131 63.7009C95.633 64.06 95.3929 64.4484 95.1971 64.8595C95.031 65.2079 94.9075 65.5782 94.6607 66.3189L94.3416 67.276L93.8344 68.7978L93.3587 70.2247C93.2372 70.5892 93.3321 70.9911 93.6038 71.2628C93.8754 71.5344 94.2773 71.6293 94.6418 71.5078L96.0687 71.0322L97.5905 70.5249L98.5476 70.2059C99.2883 69.959 99.6586 69.8355 100.007 69.6695C100.418 69.4736 100.807 69.2335 101.166 68.9535Z" fill="#B02E0C"/>
<path d="M111.335 58.8506C112.804 57.3817 112.804 55.0001 111.335 53.5311C109.866 52.0622 107.485 52.0622 106.016 53.5311L105.795 53.7524C105.581 53.9659 105.484 54.2642 105.538 54.5614C105.571 54.7483 105.633 55.0217 105.747 55.3478C105.973 56.0001 106.4 56.8564 107.205 57.6613C108.01 58.4662 108.866 58.8936 109.519 59.1199C109.845 59.233 110.118 59.2952 110.305 59.3288C110.602 59.3821 110.901 59.2854 111.114 59.0719L111.335 58.8506Z" fill="#B02E0C"/>
<path fill-rule="evenodd" clip-rule="evenodd" d="M79.6918 45.7713C77.6543 47.8088 77.6543 51.0881 77.6543 57.6468V64.6033C77.6543 71.162 77.6543 74.4413 79.6918 76.4789C81.7293 78.5164 85.0087 78.5164 91.5673 78.5164H95.0456C101.604 78.5164 104.884 78.5164 106.921 76.4789C108.926 74.474 108.958 71.2669 108.959 64.9165L104.057 69.8179C103.588 70.2874 103.204 70.6719 102.77 71.0104C102.261 71.407 101.711 71.747 101.129 72.0244C100.632 72.2611 100.117 72.4329 99.487 72.6425L95.4666 73.9826C94.1648 74.4166 92.7294 74.0777 91.759 73.1074C90.7887 72.137 90.4498 70.7016 90.8838 69.3998L91.3594 67.9728L92.1857 65.494L92.2238 65.3795C92.4335 64.7497 92.6052 64.234 92.842 63.7371C93.1194 63.1551 93.4594 62.6049 93.856 62.0965C94.1945 61.6625 94.579 61.2783 95.0485 60.8091L102.016 53.8414L103.95 51.9078L104.171 51.6865C105.415 50.4423 107.046 49.8204 108.677 49.8207C108.414 48.0285 107.905 46.7551 106.921 45.7713C104.884 43.7338 101.604 43.7338 95.0456 43.7338H91.5673C85.0087 43.7338 81.7293 43.7338 79.6918 45.7713ZM85.0456 55.9077C85.0456 55.1873 85.6296 54.6033 86.3499 54.6033H97.6543C98.3747 54.6033 98.9586 55.1873 98.9586 55.9077C98.9586 56.628 98.3747 57.212 97.6543 57.212H86.3499C85.6296 57.212 85.0456 56.628 85.0456 55.9077ZM85.0456 62.8642C85.0456 62.1438 85.6296 61.5599 86.3499 61.5599H90.6978C91.4181 61.5599 92.0021 62.1438 92.0021 62.8642C92.0021 63.5846 91.4181 64.1685 90.6978 64.1685H86.3499C85.6296 64.1685 85.0456 63.5846 85.0456 62.8642ZM85.0456 69.8207C85.0456 69.1003 85.6296 68.5164 86.3499 68.5164H88.9586C89.679 68.5164 90.263 69.1003 90.263 69.8207C90.263 70.5411 89.679 71.1251 88.9586 71.1251H86.3499C85.6296 71.1251 85.0456 70.5411 85.0456 69.8207Z" fill="#B02E0C"/>
<path d="M45.9135 124.014H43.7893C43.6465 122.533 42.7362 121.783 41.0226 121.783C40.255 121.783 39.666 121.944 39.2376 122.265C38.8092 122.586 38.595 123.015 38.595 123.55C38.595 124.068 38.7378 124.425 39.0591 124.603C39.3804 124.8 40.0765 125.032 41.1654 125.3C41.451 125.389 41.6652 125.442 41.8258 125.478C43.236 125.835 44.1999 126.156 44.7175 126.442C45.8421 127.049 46.4133 127.995 46.4133 129.28C46.4133 129.851 46.3062 130.351 46.1277 130.797C45.9313 131.261 45.6814 131.636 45.3601 131.94C45.0388 132.243 44.6461 132.493 44.2177 132.689C43.7715 132.904 43.3074 133.046 42.8433 133.136C42.3613 133.225 41.8615 133.261 41.3617 133.261C39.7552 133.261 38.47 132.886 37.4883 132.118C36.4887 131.369 36.0067 130.244 36.0067 128.762H38.2023C38.2023 129.691 38.5057 130.387 39.1126 130.833C39.7195 131.279 40.5049 131.494 41.4867 131.494C42.3435 131.494 43.0039 131.333 43.4859 130.976C43.9678 130.619 44.2177 130.137 44.2177 129.494C44.2177 129.102 44.0749 128.762 43.825 128.513C43.5751 128.263 43.2895 128.066 43.0039 127.959C42.7005 127.852 42.1828 127.709 41.451 127.513C41.3617 127.495 41.2903 127.477 41.2546 127.459C39.666 127.067 38.6307 126.728 38.1309 126.46C37.0956 125.924 36.5422 125.103 36.4708 123.979V123.729C36.4708 122.604 36.8814 121.712 37.7382 121.033C38.595 120.355 39.7374 120.016 41.1654 120.016C42.5398 120.016 43.6644 120.355 44.539 120.998C45.3958 121.658 45.8599 122.658 45.9135 124.014ZM50.1696 120.212V122.212H48.1347V120.212H50.1696ZM50.1696 123.764V132.975H48.1347V123.764H50.1696ZM56.885 123.764V125.246H55.0286V130.101C55.0286 130.387 55.0286 130.601 55.0464 130.708C55.0464 130.815 55.0821 130.94 55.1535 131.083C55.2071 131.226 55.3142 131.315 55.457 131.351C55.5998 131.404 55.814 131.422 56.0817 131.422C56.403 131.422 56.6708 131.422 56.885 131.386V132.993C56.4744 133.046 56.0103 133.064 55.5105 133.064C55.1535 133.064 54.8322 133.046 54.5645 132.993C54.2967 132.939 54.0825 132.868 53.904 132.797C53.7255 132.725 53.5649 132.618 53.4578 132.44C53.3328 132.261 53.2436 132.118 53.1722 132.011C53.1008 131.904 53.0651 131.69 53.0294 131.404C52.9937 131.119 52.9937 130.904 52.9937 130.762V129.976V129.869V129.762V129.637V125.246H51.4586V123.764H52.9937V120.998H55.0286V123.764H56.885ZM66.5777 130.101C66.3456 131.101 65.8458 131.886 65.0961 132.44C64.3464 133.011 63.4361 133.279 62.4008 133.279C61.0085 133.279 59.9018 132.832 59.0807 131.94C58.2596 131.047 57.8669 129.887 57.8669 128.477C57.8669 127.049 58.2774 125.853 59.1164 124.907C59.9553 123.979 61.0263 123.497 62.3294 123.497C63.6681 123.497 64.7391 123.961 65.5245 124.889C66.3099 125.817 66.7026 127.067 66.7026 128.655V128.87H59.9018C59.9196 129.798 60.1517 130.53 60.5979 131.029C61.0263 131.529 61.6511 131.779 62.4365 131.779C62.9898 131.779 63.4361 131.654 63.7931 131.386C64.1501 131.119 64.4178 130.69 64.632 130.101H66.5777ZM64.6677 127.513C64.5963 126.745 64.3643 126.139 63.9359 125.692C63.5075 125.246 62.972 125.014 62.3115 125.014C61.6332 125.014 61.0977 125.228 60.6872 125.657C60.2766 126.085 60.0267 126.71 59.9375 127.513H64.6677ZM75.7523 120.266V132.975H73.5032V120.266H75.7523ZM80.1313 123.764V125.121C80.8631 124.05 81.8806 123.515 83.1836 123.515C84.2189 123.515 85.0043 123.8 85.522 124.371C86.0396 124.943 86.3074 125.764 86.3074 126.835V132.975H84.2725V127.62C84.2725 127.263 84.2546 126.96 84.2189 126.71C84.1832 126.46 84.094 126.21 83.9869 125.96C83.8798 125.71 83.7013 125.532 83.4514 125.407C83.2015 125.282 82.8802 125.21 82.4875 125.21C80.9881 125.21 80.2384 126.156 80.2384 128.013V132.975H78.2035V123.764H80.1313ZM87.5072 123.764H89.7206L92.0768 130.851L94.3438 123.764H96.4501L93.1478 132.993H90.863L87.5072 123.764ZM105.938 130.101C105.706 131.101 105.206 131.886 104.457 132.44C103.707 133.011 102.797 133.279 101.761 133.279C100.369 133.279 99.2624 132.832 98.4413 131.94C97.6202 131.047 97.2275 129.887 97.2275 128.477C97.2275 127.049 97.6381 125.853 98.477 124.907C99.316 123.979 100.387 123.497 101.69 123.497C103.029 123.497 104.1 123.961 104.885 124.889C105.671 125.817 106.063 127.067 106.063 128.655V128.87H99.2624C99.2803 129.798 99.5123 130.53 99.9586 131.029C100.387 131.529 101.012 131.779 101.797 131.779C102.35 131.779 102.797 131.654 103.154 131.386C103.511 131.119 103.778 130.69 103.993 130.101H105.938ZM104.028 127.513C103.957 126.745 103.725 126.139 103.297 125.692C102.868 125.246 102.333 125.014 101.672 125.014C100.994 125.014 100.458 125.228 100.048 125.657C99.6373 126.085 99.3874 126.71 99.2981 127.513H104.028ZM109.556 123.764V125.121C110.288 124.05 111.305 123.515 112.608 123.515C113.644 123.515 114.429 123.8 114.947 124.371C115.464 124.943 115.732 125.764 115.732 126.835V132.975H113.697V127.62C113.697 127.263 113.679 126.96 113.644 126.71C113.608 126.46 113.519 126.21 113.411 125.96C113.304 125.71 113.126 125.532 112.876 125.407C112.626 125.282 112.305 125.21 111.912 125.21C110.413 125.21 109.663 126.156 109.663 128.013V132.975H107.628V123.764H109.556ZM122.358 123.764V125.246H120.502V130.101C120.502 130.387 120.502 130.601 120.52 130.708C120.52 130.815 120.555 130.94 120.627 131.083C120.68 131.226 120.787 131.315 120.93 131.351C121.073 131.404 121.287 131.422 121.555 131.422C121.876 131.422 122.144 131.422 122.358 131.386V132.993C121.948 133.046 121.484 133.064 120.984 133.064C120.627 133.064 120.305 133.046 120.038 132.993C119.77 132.939 119.556 132.868 119.377 132.797C119.199 132.725 119.038 132.618 118.931 132.44C118.806 132.261 118.717 132.118 118.645 132.011C118.574 131.904 118.538 131.69 118.503 131.404C118.467 131.119 118.467 130.904 118.467 130.762V129.976V129.869V129.762V129.637V125.246H116.932V123.764H118.467V120.998H120.502V123.764H122.358ZM128.07 123.497C129.463 123.497 130.587 123.943 131.426 124.818C132.247 125.71 132.676 126.888 132.676 128.37C132.676 129.869 132.247 131.065 131.426 131.94C130.605 132.832 129.481 133.261 128.07 133.261C126.625 133.261 125.482 132.832 124.643 131.94C123.786 131.065 123.376 129.869 123.376 128.37C123.376 126.888 123.786 125.71 124.643 124.818C125.5 123.943 126.642 123.497 128.07 123.497ZM128.035 125.103C127.214 125.103 126.589 125.407 126.125 125.978C125.661 126.567 125.429 127.37 125.429 128.37C125.429 129.405 125.661 130.226 126.125 130.797C126.589 131.386 127.231 131.672 128.053 131.672C128.838 131.672 129.463 131.386 129.927 130.797C130.391 130.208 130.623 129.387 130.623 128.352C130.623 127.352 130.391 126.549 129.927 125.978C129.463 125.407 128.838 125.103 128.035 125.103ZM139.597 123.586V125.532C139.24 125.496 138.991 125.478 138.883 125.478C137.098 125.478 136.224 126.638 136.224 128.923V132.975H134.207V123.764H136.117V125.603C136.759 124.246 137.795 123.55 139.205 123.55L139.597 123.586ZM148.782 123.764L145.373 132.797C145.337 132.886 145.266 133.064 145.177 133.332C145.07 133.6 145.016 133.778 144.98 133.868C144.945 133.975 144.873 134.135 144.766 134.367C144.659 134.617 144.588 134.778 144.534 134.867L144.266 135.296C144.141 135.492 144.034 135.635 143.927 135.706C143.82 135.795 143.695 135.902 143.552 136.027C143.409 136.152 143.249 136.242 143.106 136.295C142.945 136.349 142.767 136.402 142.571 136.438C142.374 136.474 142.16 136.492 141.946 136.492C141.553 136.492 141.089 136.456 140.536 136.384V134.671C140.964 134.76 141.321 134.796 141.607 134.796C141.749 134.796 141.874 134.778 141.999 134.742C142.106 134.707 142.214 134.635 142.321 134.528C142.41 134.421 142.499 134.332 142.571 134.242C142.642 134.153 142.695 134.028 142.767 133.868C142.838 133.707 142.892 133.582 142.928 133.493C142.963 133.403 142.999 133.261 143.07 133.064C143.124 132.886 143.16 132.761 143.177 132.707L139.643 123.764H141.874L144.338 130.547L146.658 123.764H148.782Z" fill="#060C12"/>
</g>
<defs>
<filter id="filter0_dddd_286_1708" x="-0.000391006" y="4.8995e-05" width="196.351" height="191.25" filterUnits="userSpaceOnUse" color-interpolation-filters="sRGB">
<feFlood flood-opacity="0" result="BackgroundImageFix"/>
<feColorMatrix in="SourceAlpha" type="matrix" values="0 0 0 0 0 0 0 0 0 0 0 0 0 0 0 0 0 0 127 0" result="hardAlpha"/>
<feOffset dy="1.275"/>
<feGaussianBlur stdDeviation="1.9125"/>
<feColorMatrix type="matrix" values="0 0 0 0 0.635294 0 0 0 0 0.639216 0 0 0 0 0.662745 0 0 0 0.1 0"/>
<feBlend mode="normal" in2="BackgroundImageFix" result="effect1_dropShadow_286_1708"/>
<feColorMatrix in="SourceAlpha" type="matrix" values="0 0 0 0 0 0 0 0 0 0 0 0 0 0 0 0 0 0 127 0" result="hardAlpha"/>
<feOffset dx="1.275" dy="6.375"/>
<feGaussianBlur stdDeviation="3.1875"/>
<feColorMatrix type="matrix" values="0 0 0 0 0.635294 0 0 0 0 0.639216 0 0 0 0 0.662745 0 0 0 0.09 0"/>
<feBlend mode="normal" in2="effect1_dropShadow_286_1708" result="effect2_dropShadow_286_1708"/>
<feColorMatrix in="SourceAlpha" type="matrix" values="0 0 0 0 0 0 0 0 0 0 0 0 0 0 0 0 0 0 127 0" result="hardAlpha"/>
<feOffset dx="3.825" dy="14.025"/>
<feGaussianBlur stdDeviation="4.4625"/>
<feColorMatrix type="matrix" values="0 0 0 0 0.635294 0 0 0 0 0.639216 0 0 0 0 0.662745 0 0 0 0.05 0"/>
<feBlend mode="normal" in2="effect2_dropShadow_286_1708" result="effect3_dropShadow_286_1708"/>
<feColorMatrix in="SourceAlpha" type="matrix" values="0 0 0 0 0 0 0 0 0 0 0 0 0 0 0 0 0 0 127 0" result="hardAlpha"/>
<feOffset dx="6.375" dy="25.5"/>
<feGaussianBlur stdDeviation="5.1"/>
<feColorMatrix type="matrix" values="0 0 0 0 0.635294 0 0 0 0 0.639216 0 0 0 0 0.662745 0 0 0 0.01 0"/>
<feBlend mode="normal" in2="effect3_dropShadow_286_1708" result="effect4_dropShadow_286_1708"/>
<feBlend mode="normal" in="SourceGraphic" in2="effect4_dropShadow_286_1708" result="shape"/>
</filter>
</defs>
</svg>
