<svg width="80" height="80" viewBox="0 0 80 80" fill="none" xmlns="http://www.w3.org/2000/svg">
<circle cx="40" cy="40" r="40" fill="#B02E0C"/>
<g clip-path="url(#clip0_286_1901)">
<path d="M38.4498 24.7273C38.1016 24.7273 37.7717 24.8861 37.5518 25.1549C37.338 25.4298 37.2524 25.7842 37.3318 26.1263L38.0038 29.1564C38.0833 29.4863 38.407 29.6879 38.7369 29.6207H40.7896C40.8324 29.6268 40.8812 29.6329 40.924 29.6329C41.205 29.6329 41.4555 29.4374 41.5166 29.1564L42.1947 26.1263C42.2741 25.7842 42.1886 25.4298 41.9748 25.1549C41.7548 24.8861 41.4249 24.7273 41.0767 24.7273H38.4498ZM51.8898 54.6618V49.8479C51.8898 48.7727 51.6454 47.7402 51.1995 46.8055C50.7474 45.8709 50.0876 45.0339 49.2507 44.3619C48.3343 43.6288 47.1614 43.3234 46.0068 43.4455C46.2267 43.751 46.3611 44.1175 46.3611 44.5208V48.4917C47.4852 49.0232 48.2427 50.1655 48.2427 51.4729V54.6618C48.2427 54.8757 48.1999 55.0834 48.1327 55.2728H51.2789C51.6149 55.2728 51.8898 54.9978 51.8898 54.6618ZM36.8309 48.1618H42.6956V44.8751C41.7774 45.3036 40.7765 45.5257 39.7633 45.5257C38.75 45.5257 37.7491 45.3036 36.8309 44.8751V48.1618ZM27.6367 49.8479V54.6618C27.6367 54.9978 27.9116 55.2728 28.2476 55.2728H31.3938C31.3266 55.0834 31.2838 54.8757 31.2838 54.6618V51.4729C31.2838 50.1594 32.0414 49.0232 33.1654 48.4917V44.5208C33.1654 44.1175 33.2998 43.7449 33.5198 43.4455C32.3652 43.3295 31.1922 43.6288 30.2758 44.3619C28.602 45.7059 27.6367 47.7036 27.6367 49.8479Z" fill="white"/>
<path d="M32.5039 51.473V54.6619C32.5039 54.9979 32.7788 55.2728 33.1148 55.2728H46.4082C46.7442 55.2728 47.0191 54.9979 47.0191 54.6619V51.473C47.0191 50.3917 46.1883 49.5058 45.1375 49.402V44.5208C45.1375 44.1848 44.8626 43.9099 44.5266 43.9099C44.1845 43.9099 43.9157 44.1848 43.9157 44.5208V49.3837H35.6073V44.5208C35.6073 44.1848 35.3385 43.9099 34.9964 43.9099C34.6604 43.9099 34.3855 44.1848 34.3855 44.5208V49.402C33.8711 49.453 33.3939 49.693 33.0464 50.0755C32.6988 50.4581 32.5055 50.9561 32.5039 51.473Z" fill="white"/>
<path d="M46.3306 37.3119H33.1961C33.8558 41.1545 36.5499 44.038 39.7633 44.038C42.9767 44.038 45.6708 41.1545 46.3306 37.3119ZM31.3145 33.2494V35.4792C31.3145 35.8152 31.5894 36.0901 31.9254 36.0901H47.6013C47.9373 36.0901 48.2122 35.8152 48.2122 35.4792V33.2494C48.2122 32.9134 47.9373 32.6385 47.6013 32.6385H47.1675C46.9659 30.1154 45.4937 27.9039 43.3188 26.7188L42.714 29.419C42.6252 29.8271 42.3989 30.1923 42.0731 30.4536C41.7473 30.7149 41.3417 30.8565 40.9241 30.8546C40.8446 30.8546 40.7713 30.8485 40.6919 30.8424H38.8347C38.7553 30.8485 38.682 30.8546 38.6026 30.8546C37.7534 30.8546 37.002 30.2498 36.8126 29.4251L36.2139 26.7249C35.1308 27.3122 34.2114 28.1607 33.5393 29.1934C32.8672 30.2261 32.4636 31.4103 32.3652 32.6385H31.9254C31.5894 32.6385 31.3145 32.9134 31.3145 33.2494Z" fill="white"/>
</g>
<defs>
<clipPath id="clip0_286_1901">
<rect width="30.5455" height="30.5455" fill="white" transform="translate(24.7266 24.7273)"/>
</clipPath>
</defs>
</svg>
